<svg width="45" height="100" viewBox="0 0 45 100" fill="none" xmlns="http://www.w3.org/2000/svg">
<path d="M22.5046 43.4607C10.0944 43.4607 0 53.483 0 65.8046V100H7.16584V65.8046C7.16584 57.4089 14.044 50.58 22.5 50.58C30.9561 50.58 37.8342 57.4089 37.8342 65.8046V100H45V65.8046C45.0093 53.483 34.9149 43.4607 22.5046 43.4607Z" fill="#5B00DB"/>
<path d="M30.2818 35.1966C37.8786 30.8432 40.4825 21.1996 36.0977 13.657C31.713 6.11449 22 3.52923 14.4032 7.88267C6.80636 12.2361 4.2025 21.8797 8.58726 29.4222C12.972 36.9648 22.685 39.55 30.2818 35.1966Z" fill="#5B00DB"/>
</svg>
