<svg width="61" height="58" viewBox="0 0 61 58" fill="none" xmlns="http://www.w3.org/2000/svg">
<g clip-path="url(#clip0_568_325)">
<path fill-rule="evenodd" clip-rule="evenodd" d="M35.4257 41.9429C34.2999 42.4686 33.8599 40.9429 33.4657 40.2286C32.9285 40.8058 31.3971 42.9829 29.8314 42.3086C28.5571 41.7601 29.5857 39.6801 29.7628 39.0058C30.0257 37.9886 29.7742 38.6629 29.3685 38.0401C29.6714 37.4515 30.7742 37.3029 31.2085 37.8515C31.6999 38.4744 31.3857 39.6572 31.2828 40.4058C32.3571 40.0401 33.6828 38.4744 34.2999 37.4629C34.5685 37.0172 35.1857 36.4058 35.3742 36.6229C35.8714 37.1944 35.5228 38.2229 35.4085 39.1144C35.3342 39.7086 35.1228 41.7886 35.4257 41.9372V41.9429ZM23.1114 40.4915L25.7171 39.8572C25.9799 39.5944 27.4599 34.6572 28.4999 35.3429L28.6828 35.7829C28.7685 36.4458 28.0314 38.2629 28.0257 39.1829C28.5742 39.0172 28.7799 38.7829 29.2371 39.0286C29.0771 39.6172 28.6199 39.7429 28.0714 40.1315C26.9171 40.9601 28.0371 45.3544 25.2599 44.7601C24.9685 44.6972 24.9799 42.8286 25.2599 41.6858C24.7799 41.7201 23.8314 42.1715 23.2542 42.3544C22.5285 42.5829 22.3628 42.7315 22.2714 43.0915C22.2142 43.3144 22.1799 43.6229 22.0599 44.0858C21.7228 45.3715 21.3685 48.0229 19.7228 47.2972C19.4542 47.1029 19.3685 46.9829 19.3057 46.4515C19.2542 46.0172 19.3057 45.5772 19.3799 45.1486C19.5057 44.3886 19.7457 43.7029 19.8999 43.0229C19.0485 43.0344 18.3914 42.9601 18.1228 42.0458C18.1399 40.9715 19.7971 41.1029 20.6599 40.8858C21.3228 39.7486 21.9342 37.5201 23.3914 35.9715C25.5342 33.7029 23.2542 40.0458 23.1114 40.4972V40.4915ZM40.3571 35.3544C41.3514 35.2744 44.2542 34.3315 44.4999 34.7429C44.7457 35.1601 41.4142 36.3429 40.5171 36.6458C39.6828 36.9315 39.6771 36.7772 39.3971 37.5201L37.8314 41.9429C37.5742 42.7029 37.6199 43.1201 36.9571 43.2344C36.0314 41.4229 37.2657 39.0115 37.5228 37.4001C36.6142 37.3544 35.8485 37.3201 35.8885 36.4401C35.9171 35.7258 37.1742 35.9944 38.2599 35.8458C38.8199 35.1029 39.2542 34.0858 39.7914 33.5144C40.2199 33.0572 40.9114 33.0115 40.8828 33.8972C40.8714 34.2744 40.4771 35.0401 40.3571 35.3544ZM23.3285 34.9315C21.8485 35.4115 21.3628 33.2515 22.4657 31.3086C23.0542 30.2744 24.0028 29.0744 24.2257 28.6801C24.5114 28.1772 24.3399 28.0401 25.0428 28.0858C26.0028 29.3601 24.5628 31.8915 23.9228 33.1772C23.5971 33.8344 23.2142 34.7144 23.3285 34.9372V34.9315ZM28.3685 32.8515C31.5399 32.6058 32.9628 33.2286 34.6028 32.9772C34.8542 32.9372 36.9799 32.1715 36.3171 33.2115C36.2714 33.2858 35.9342 33.5372 35.7799 33.6229C33.5285 34.8744 31.0142 33.9829 27.7057 34.5715C26.6142 34.7658 25.2485 35.3658 24.8885 34.9029C24.1457 33.9601 26.4657 32.1658 27.3399 31.2686L29.3457 29.2001C28.9342 29.2515 25.9285 29.8515 26.0542 28.5829C26.0999 28.1544 26.1914 28.2744 26.2885 28.1886C26.6714 27.8915 31.3057 27.5658 31.8599 27.7372C32.0142 28.4744 31.9228 28.7429 31.5171 29.3372C30.4199 30.9429 28.9228 31.8972 28.3742 32.8515H28.3685ZM16.4257 32.8629C15.8542 33.6286 15.4085 35.2915 15.0028 36.3429C14.6199 37.3429 14.0542 39.4458 12.8542 39.2344C12.0257 38.1658 13.4314 34.3144 13.8485 33.1772C14.5685 31.2001 15.4199 29.6801 16.3799 28.2229C15.9457 28.2401 15.5799 28.5144 15.2542 28.1772C13.9342 26.8286 19.5799 24.2458 21.8085 27.3201C23.8314 30.1144 19.7971 33.6058 16.6599 33.2344L16.4314 32.8629H16.4257ZM44.5399 28.7372C45.0828 28.9429 45.4828 28.9315 46.0028 29.2286C45.9399 29.8915 45.4028 30.0686 44.6771 30.1829C43.5057 30.3715 43.4371 30.0915 42.6714 29.7886C42.0428 30.6115 40.3457 31.3829 38.8085 31.0801C38.4599 31.9144 36.9742 32.2172 35.8028 32.2515C35.2028 32.2686 31.9914 32.4572 31.7457 32.3829C31.3057 31.2744 32.9114 30.1144 33.3342 29.7086C33.5799 29.4744 35.6257 27.7715 35.7057 27.7315C34.9571 27.6801 34.0942 27.9829 33.2771 27.8972C32.4771 27.8115 31.8485 27.1886 32.4771 26.4344C32.6485 26.3486 35.0885 26.1144 35.6199 26.0286C36.5628 25.8686 38.2828 25.5258 38.2999 26.7144C38.3114 27.5144 37.1742 28.3315 36.7685 28.7601C36.2257 29.3315 35.5742 30.1258 34.9285 30.5086C35.3228 30.9029 36.0028 30.8915 36.6485 30.9258C37.2771 30.9658 37.8428 30.8458 38.3914 30.7429C38.0542 29.0115 38.7571 28.0344 40.2885 26.9601C41.5457 26.0744 43.7914 25.5372 44.8714 25.8629C45.2085 27.1086 44.2999 27.5601 44.5457 28.7372H44.5399ZM24.5285 27.2286C23.5685 25.3029 27.0142 23.3544 27.6428 23.7144C28.1457 24.0001 26.7971 25.6286 26.5685 25.9658C26.1342 26.6058 25.6371 27.5601 24.5285 27.2286ZM35.9685 12.0172C36.6599 11.8972 37.0314 12.2629 37.1742 12.8515L37.9399 15.9029C38.2542 16.2972 41.7057 17.2286 42.4599 17.4915C43.9799 18.0229 45.2999 18.6744 46.6999 19.3601C47.2942 19.6515 48.3399 20.1601 47.9399 21.0286C47.5914 21.7772 46.3571 21.5544 45.4828 21.5544C34.9971 21.5544 27.4999 22.4801 17.4771 23.9144C16.5685 24.0458 12.7285 24.8744 12.2485 24.3772C11.5457 23.6401 14.7514 22.0344 15.3057 21.7144C16.5971 20.9715 17.8371 20.2629 19.2314 19.6572C23.4314 17.8401 22.0771 18.8572 24.3171 15.5715C25.2028 14.2744 25.0142 14.2115 25.8371 14.0458L35.9742 12.0172H35.9685ZM22.5285 6.5715C22.6371 7.0115 21.9799 7.10293 20.8542 7.56578C18.9057 8.36007 17.2428 9.10293 15.4542 10.1315C11.1457 12.6058 7.62566 17.2915 6.03708 22.1315C4.55137 26.6458 4.57994 36.7429 6.55137 41.0458C8.17423 44.5886 8.61994 44.7886 11.0771 47.3029C13.3685 49.6515 17.8142 52.5258 21.0828 53.3658C22.1971 53.6515 23.3057 53.8001 24.4428 53.9886C25.1114 54.1029 25.6599 54.4686 25.3228 54.6172C22.9285 55.6686 15.2999 52.6115 12.9685 50.9944C9.89423 48.8572 8.05994 46.3772 5.89994 43.5715C3.2428 40.1144 2.7628 46.7886 10.6542 52.9201C17.8942 58.5486 29.8199 58.3372 38.0714 54.5944C44.1171 51.8515 48.5857 47.9544 51.6485 42.1086C52.6999 40.0972 53.4714 38.3772 54.0942 35.9086C55.2142 31.4744 54.6828 24.4458 53.5628 20.0629C51.8428 13.3486 46.5285 9.18293 40.9114 6.65721C36.9228 4.86864 32.9685 5.38864 34.5457 4.38864C35.9685 3.48578 40.6771 5.24578 41.9971 5.83436C44.1799 6.8115 46.2485 8.14293 47.9571 9.31436C56.4142 15.1201 58.1342 27.8915 55.7685 37.4458C55.1571 39.9144 54.2085 42.2401 53.0714 44.2001C50.7914 48.1372 47.4885 51.1201 43.7342 53.6115C43.2314 53.9429 40.9685 55.0972 41.2942 55.7315C41.6714 56.4572 44.4828 55.2058 44.9342 54.9544C48.3057 53.0744 52.5742 49.1658 55.0371 46.1772C57.8485 42.7715 59.7342 38.3144 60.2656 32.5601C60.8599 26.1086 60.4085 21.5944 58.1628 16.1144C51.5799 0.0743561 34.9114 -2.0285 20.0371 3.4115C16.7799 4.60578 13.5171 6.2515 10.8714 8.3315C9.50565 9.40578 8.33423 10.4001 7.23137 11.7372C4.33423 15.2401 2.78566 17.4629 1.70566 22.7029C1.3228 24.5658 1.01994 29.6515 1.85994 31.2229C2.01423 31.5144 2.57994 32.3201 3.15708 31.9201C3.59708 31.6115 3.47137 30.4172 3.49423 29.8572C3.55137 28.3886 3.70566 26.9144 3.95708 25.5144C4.81423 20.7658 6.86565 16.2229 10.2885 12.9486C11.3342 11.9486 11.2714 11.8229 12.7228 10.7315C14.7571 9.19436 22.2199 5.29721 22.5285 6.57721V6.5715ZM3.91708 40.3658C4.15137 40.1544 4.03137 36.8172 3.35137 35.2058C2.57994 33.3772 -0.602915 34.1144 0.894227 38.7315C1.2428 39.9658 2.92851 41.2744 3.91708 40.3715V40.3658ZM16.4257 32.8629C17.8371 32.2686 19.1571 31.8058 19.8999 30.7258C21.0371 29.0686 19.6142 27.9944 17.8085 27.9715C17.5571 29.9201 16.6828 31.3201 16.4257 32.8629ZM40.4485 29.2744C41.0142 29.2286 41.6885 28.9372 42.1285 28.6744C42.6257 28.3772 42.7114 27.8515 42.8999 27.3086C41.7057 27.4629 40.7399 28.3086 40.4485 29.2744ZM52.0542 52.5315V51.4858H51.6828V51.2744H52.6771V51.4858H52.3057V52.5315H52.0542ZM52.8371 52.5315V51.2744H53.2142L53.4428 52.1315L53.6657 51.2744H54.0428V52.5315H53.8085V51.5429L53.5628 52.5315H53.3228L53.0771 51.5429V52.5315H52.8428H52.8371Z" fill="white"/>
</g>
<defs>
<clipPath id="clip0_568_325">
<rect width="60" height="56.5714" fill="white" transform="translate(0.5 0.714287)"/>
</clipPath>
</defs>
</svg>
