<svg width="61" height="60" viewBox="0 0 61 60" fill="none" xmlns="http://www.w3.org/2000/svg">
<g clip-path="url(#clip0_568_314)">
<path d="M54.9898 0H6.0102C2.967 0 0.5 2.467 0.5 5.5102V54.4898C0.5 57.533 2.967 60 6.0102 60H54.9898C58.033 60 60.5 57.533 60.5 54.4898V5.5102C60.5 2.467 58.033 0 54.9898 0Z" fill="white"/>
<mask id="mask0_568_314" style="mask-type:luminance" maskUnits="userSpaceOnUse" x="7" y="20" width="47" height="18">
<path d="M53.7653 20.8163H7.2347V37.3469H53.7653V20.8163Z" fill="white"/>
</mask>
<g mask="url(#mask0_568_314)">
<path fill-rule="evenodd" clip-rule="evenodd" d="M37.0325 30.9551C37.0386 30.6429 38.6366 27.5327 38.9182 27.2878L39.1325 31.1878L37.0325 30.9551ZM33.7448 37.3163L35.6978 33.4225C35.1713 32.9694 34.3325 32.9388 33.6407 33.0061C32.6182 33.1041 32.6795 33.2694 32.208 34.0714L30.3958 37.3408L33.7448 37.3163ZM27.9835 28.5184L29.0611 23.5408C31.3754 23.2592 33.6346 23.4796 32.7162 26.4673C32.0427 28.6653 30.0652 28.8122 27.9835 28.5184ZM43.5468 30.4469C44.2142 32.2408 44.1468 31.8551 43.7427 33.7469C43.608 34.3837 43.204 36.6735 42.9652 37.0531L41.2876 24.4408C41.3244 24.4959 41.3182 24.4469 41.3856 24.6L43.5468 30.4469ZM46.3142 37.3286L47.5019 32.0755L53.7652 24.2816L49.7733 24.3122L46.3815 29.498L45.0285 24.2816H37.8591L35.8631 27.6612C36.2182 26.6816 37.1672 23.3082 35.1468 21.7653C34.406 21.202 32.8754 20.8163 31.5836 20.8163L26.1652 20.8776L23.5631 32.9327L22.6815 36.7898L23.9366 24.2816L19.9203 24.3L15.8244 32.9327L15.3835 24.2939L11.3978 24.3061L7.24069 37.3531L10.4917 37.3163L12.9162 28.0041L13.4917 37.3469L16.3448 37.3163L20.8938 28.2367L19.5652 37.3531L26.0305 37.3163L27.3468 31.3102C28.9142 31.102 30.2427 31.4082 31.9509 30.9551C33.6897 30.4898 34.8774 29.4796 35.404 28.5061L34.1366 30.7286C33.6774 31.5061 33.8121 31.6102 32.955 31.9531C32.6305 32.0816 31.8284 32.4429 31.0999 32.8102C30.4754 33.1286 28.0387 34.3531 27.7815 34.5735C28.0999 34.3714 30.555 33.3306 31.1672 33.0612C32.5019 32.4796 34.4121 31.7388 36.3162 32.3878C37.8284 32.9082 38.7529 34.2184 39.2244 35.6633C39.3835 36.1531 39.4876 36.9673 39.6407 37.3469L46.3203 37.3347L46.3142 37.3286Z" fill="black"/>
</g>
</g>
<defs>
<clipPath id="clip0_568_314">
<rect width="60" height="60" fill="white" transform="translate(0.5)"/>
</clipPath>
</defs>
</svg>
