<svg width="61" height="60" viewBox="0 0 61 60" fill="none" xmlns="http://www.w3.org/2000/svg">
<g clip-path="url(#clip0_568_205)">
<path d="M30.5 57.7163C45.8073 57.7163 58.2163 45.3073 58.2163 30C58.2163 14.6927 45.8073 2.28368 30.5 2.28368C15.1927 2.28368 2.78369 14.6927 2.78369 30C2.78369 45.3073 15.1927 57.7163 30.5 57.7163Z" fill="white"/>
<path d="M30.5 0C13.9449 0 0.5 13.4449 0.5 30C0.5 46.5551 13.9449 60 30.5 60C47.0551 60 60.5 46.5551 60.5 30C60.5 13.4449 47.0551 0 30.5 0ZM30.5 58.4449C14.802 58.4449 2.0551 45.698 2.0551 30C2.0551 14.302 14.802 1.5551 30.5 1.5551C46.198 1.5551 58.9449 14.302 58.9449 30C58.9449 45.698 46.198 58.4449 30.5 58.4449Z" fill="white"/>
<path d="M40.1306 23.6082C40.051 23.5286 39.9286 23.5286 39.8 23.5286C39.6714 23.5286 39.5551 23.5714 39.5551 23.6939C39.5551 23.9816 40.253 23.9816 40.253 24.4714C40.253 24.7592 39.9653 24.9245 39.6408 24.9245C39.5612 24.9245 39.4388 24.9245 39.3102 24.8816V24.5939C39.4326 24.6735 39.5551 24.6735 39.6775 24.6735C39.8428 24.6735 39.9653 24.6306 39.9653 24.5082C39.9653 24.2204 39.2673 24.2204 39.2673 23.7735C39.2673 23.4857 39.5551 23.3204 39.8428 23.3204C39.9224 23.3204 40.0449 23.3204 40.1306 23.3633C40.1735 23.4061 40.1735 23.5286 40.1306 23.6082Z" fill="black"/>
<path d="M42.2612 24.7102C42.1816 24.7898 42.0163 24.8327 41.8082 24.8327C41.3551 24.8327 41.1102 24.4653 41.1102 24.0551C41.1102 23.602 41.4408 23.2347 41.8877 23.2347C42.0102 23.2347 42.1326 23.2347 42.2184 23.2776V23.5653C42.1388 23.4857 42.0163 23.4857 41.851 23.4857C41.5265 23.4857 41.398 23.7735 41.398 24.0184C41.398 24.349 41.5633 24.5939 41.851 24.5939C42.0163 24.5939 42.0959 24.551 42.2184 24.4714L42.2612 24.7163V24.7102Z" fill="black"/>
<path d="M44.1041 24.7959V24.1408H43.449V24.7959H43.1612V23.2408H43.449V23.8531H44.1041V23.2408H44.3918V24.7959H44.1041Z" fill="black"/>
<path d="M46.0755 23.2347C46.5286 23.2347 46.7735 23.602 46.7735 24.0122C46.7735 24.4653 46.4429 24.8327 45.9531 24.8327C45.5 24.8327 45.2551 24.4653 45.2551 24.0551C45.298 23.602 45.6224 23.2347 46.0755 23.2347ZM46.0327 24.5878C46.3633 24.5878 46.4857 24.3429 46.4857 24.0122C46.4857 23.7245 46.3204 23.4367 46.0327 23.4367C45.7082 23.4367 45.5796 23.6816 45.5796 24.0122C45.5796 24.3429 45.7449 24.5878 46.0327 24.5878Z" fill="black"/>
<path d="M18.7816 23.5653V24.8388H18.4939V23.5653H18.0408V23.3204H19.2286V23.5653H18.7755H18.7816Z" fill="black"/>
<path d="M20.9918 24.8388V24.1837H20.3367V24.8388H20.049V23.2837H20.3367V23.8959H20.9918V23.2837H21.2796V24.8388H20.9918Z" fill="black"/>
<path d="M22.2224 24.8388V23.2837H23.0429V23.5286H22.4673V23.9388C22.5469 23.9388 22.6694 23.8959 22.798 23.8959H23.0429V24.1837H22.5102V24.5939H23.0857V24.8388H22.2224Z" fill="black"/>
<path d="M25.2531 24.7959V23.2408H26.1163V23.4857H25.5408V23.8959H26.0306V24.1408H25.498V24.551H26.0735V24.7959H25.2531Z" fill="black"/>
<path d="M28.0816 24.7959C28.0388 24.7959 27.8796 24.5082 27.8367 24.4653L27.2612 23.6449C27.3041 23.8102 27.3041 24.098 27.3041 24.4225V24.8327H27.0163V23.2776H27.3469L28.1245 24.4225C28.0816 24.2571 28.0816 24.0123 28.0816 23.6878V23.2776H28.3694V24.8327L28.0816 24.7898V24.7959Z" fill="black"/>
<path d="M30.5 24.7531C30.3775 24.7959 30.2122 24.8327 30.0469 24.8327C29.5571 24.8327 29.2694 24.4653 29.2694 24.0551C29.2694 23.602 29.6 23.2347 30.1326 23.2347C30.2551 23.2347 30.3775 23.2347 30.4571 23.2776V23.5653C30.3775 23.4857 30.2122 23.4857 30.0469 23.4857C29.6796 23.4857 29.5571 23.7306 29.5571 24.0184C29.5571 24.349 29.7592 24.5939 30.0469 24.5939H30.2122V24.0184H30.5V24.7531Z" fill="black"/>
<path d="M31.4429 24.7959V23.2408H31.7306V24.5143H32.3429V24.7592H31.4429V24.802V24.7959Z" fill="black"/>
<path d="M33.2061 24.7959V23.2408H33.4939V24.7959H33.2061Z" fill="black"/>
<path d="M35.251 23.6082C35.1714 23.5286 35.0061 23.5286 34.9265 23.5286C34.8041 23.5286 34.6816 23.5714 34.6816 23.6939C34.6816 23.9816 35.3796 23.9816 35.3796 24.4714C35.3796 24.7592 35.0918 24.9245 34.7674 24.9245C34.6878 24.9245 34.5653 24.9245 34.4367 24.8816V24.5939C34.5592 24.6735 34.6816 24.6735 34.8041 24.6735C34.9694 24.6735 35.0918 24.6306 35.0918 24.5082C35.0918 24.2204 34.3939 24.2204 34.3939 23.7735C34.3939 23.4857 34.6816 23.3204 34.9694 23.3204C35.049 23.3204 35.1714 23.3204 35.2572 23.3633V23.6082H35.251Z" fill="black"/>
<path d="M37.2225 24.7959V24.1408H36.5674V24.7959H36.2796V23.2408H36.5674V23.8531H37.2225V23.2408H37.5102V24.7959H37.2225Z" fill="black"/>
<path d="M13.2469 33.2816C12.1388 33.2816 10.9939 32.7918 10.051 31.8857L10.3816 29.8347C11.7775 30.9 12.7204 31.0653 13.3327 31.0653C13.6633 31.0653 14.1959 30.7347 14.1959 30.2449C14.1959 28.849 9.93469 29.1 9.93469 25.7388C9.93469 23.9755 11.6551 22.6653 13.5408 22.6653C14.649 22.6653 15.8367 23.2408 16.7367 24.1837L15.8367 25.9041C14.6918 24.9184 14.0306 24.8816 13.5408 24.8816C13.0878 24.8816 12.6775 25.2918 12.6775 25.6163C12.6775 26.9694 16.9388 26.8041 16.9388 30.0857C16.9388 32.0939 15.0959 33.2816 13.2531 33.2816H13.2469Z" fill="black"/>
<path d="M25.7061 28.7694C25.7061 30.2878 24.0653 31.4755 22.0571 31.4755H20.7041V33.1531H18.2857V26.0204H22.0571C24.0653 26.0204 25.7061 27.251 25.7061 28.7633V28.7694ZM23.2877 28.7694C23.2877 28.1939 22.5898 27.7041 21.7694 27.7041H20.7041V29.8347H21.7694C22.5898 29.8347 23.2877 29.3449 23.2877 28.7694Z" fill="black"/>
<path d="M27.0592 26.0265H32.5082V27.7041H29.4775V28.7265H32.5082V30.4041H29.4775V31.5123H32.5082V33.1898H27.0592V26.0204V26.0265Z" fill="black"/>
<path d="M36.7326 33.1531H34.3143V29.8347C34.3143 27.251 35.9122 25.898 37.7979 25.898C39.6837 25.898 41.2816 27.2939 41.2816 29.8347V33.1531H38.8632V31.4755H36.7326V33.1531ZM38.8204 29.302C38.8204 28.3163 38.3673 27.7837 37.7551 27.7837C37.1428 27.7837 36.6898 28.3163 36.6898 29.302V29.8347H38.8204V29.302Z" fill="black"/>
<path d="M45.5 33.1531H43.0816V26.0204H45.5V28.8061L48.2857 26.0204H51.1571L47.7531 29.4245L51.4449 33.1531H48.3714L45.4633 30.2449V33.1531H45.5061H45.5Z" fill="black"/>
<path d="M13.002 33.2816C11.8939 33.2816 10.749 32.7918 9.80612 31.8857L10.1367 29.8347C11.5326 30.9 12.4755 31.0653 13.0877 31.0653C13.4184 31.0653 13.951 30.7347 13.951 30.2449C13.951 28.849 9.68979 29.1 9.68979 25.7388C9.68979 23.9755 11.4102 22.6653 13.2959 22.6653C14.4041 22.6653 15.5918 23.2408 16.4918 24.1837L15.5918 25.9041C14.4469 24.9184 13.7857 24.8816 13.2959 24.8816C12.8428 24.8816 12.4326 25.2918 12.4326 25.6163C12.4326 26.9694 16.6939 26.8041 16.6939 30.0857C16.6939 32.0939 14.851 33.2816 13.0082 33.2816H13.002Z" fill="black"/>
<path d="M25.4612 28.7694C25.4612 30.2878 23.8204 31.4755 21.8122 31.4755H20.4592V33.1531H18.0408V26.0204H21.8122C23.8204 26.0204 25.4612 27.251 25.4612 28.7633V28.7694ZM23.0428 28.7694C23.0428 28.1939 22.3449 27.7041 21.5245 27.7041H20.4592V29.8347H21.5245C22.3449 29.8347 23.0428 29.3449 23.0428 28.7694Z" fill="black"/>
<path d="M26.8082 26.0265H32.2571V27.7041H29.2265V28.7265H32.2571V30.4041H29.2265V31.5123H32.2571V33.1898H26.8082V26.0204V26.0265Z" fill="black"/>
<path d="M36.4816 33.1531H34.0633V29.8347C34.0633 27.251 35.6612 25.898 37.5469 25.898C39.4326 25.898 41.0306 27.2939 41.0306 29.8347V33.1531H38.6122V31.4755H36.4816V33.1531ZM38.5755 29.302C38.5755 28.3163 38.1224 27.7837 37.5102 27.7837C36.898 27.7837 36.4449 28.3163 36.4449 29.302V29.8347H38.5755V29.302Z" fill="black"/>
<path d="M45.2551 33.1531H42.8367V26.0204H45.2551V28.8061L48.0408 26.0204H50.9122L47.5082 29.4245L51.1939 33.1531H48.1204L45.2122 30.2449V33.1531H45.2551Z" fill="black"/>
<path d="M37.3878 45C35.4592 45 33.8612 43.5245 33.8612 40.8184V35.1612H36.3225V41.351C36.3225 42.3735 36.7755 42.949 37.3878 42.949C38.0429 42.949 38.4531 42.3735 38.4531 41.351V35.1612H40.9143V40.8184C40.9143 43.5245 39.3163 45 37.3878 45Z" fill="black"/>
<path d="M50.5388 38.4C50.5388 40.1633 48.8184 41.6388 46.7673 41.6388H45.3347V44.8776H42.8367V35.2041H46.7735C48.8245 35.1612 50.5449 36.6 50.5449 38.4H50.5388ZM47.998 38.4C47.998 37.5 47.3 36.7592 46.4429 36.7592H45.3347V39.998H46.4429C47.3061 39.998 47.998 39.3 47.998 38.4Z" fill="black"/>
</g>
<defs>
<clipPath id="clip0_568_205">
<rect width="60" height="60" fill="white" transform="translate(0.5)"/>
</clipPath>
</defs>
</svg>
