<svg width="181" height="24" viewBox="0 0 181 24" fill="none" xmlns="http://www.w3.org/2000/svg">
<g clip-path="url(#clip0_568_293)">
<path d="M6.11415 6.74162H6.16622C7.25087 4.79793 9.04705 3.93021 11.2684 3.93021H12.301V9.29272C11.5287 8.88489 10.8085 8.78077 9.93213 8.78077C6.84304 8.78077 6.07077 10.8199 6.07077 13.5272V19.8529H0.5V4.19052H6.11415V6.74162Z" fill="white"/>
<path d="M18.323 12.0521C18.323 14.0391 19.6593 15.575 21.8806 15.575C24.102 15.575 25.4904 14.0478 25.4904 12.0521C25.4904 10.0563 24.1541 8.47705 21.8806 8.47705C19.6679 8.52912 18.323 10.1084 18.323 12.0521ZM30.8963 19.9136H25.3342V18.1782H25.2821C24.3016 19.7574 22.4013 20.4256 20.5443 20.4256C15.9107 20.4256 12.6134 16.5469 12.6134 12.0521C12.6134 7.55727 15.8066 3.67856 20.4923 3.67856C22.2971 3.67856 24.1974 4.33803 25.3342 5.7177V4.19051H30.8963V19.9136Z" fill="white"/>
<path d="M38.5148 6.22966H38.5669C39.8511 4.33803 41.4044 3.67856 43.565 3.67856C47.7908 3.67856 49.4915 6.33378 49.4915 10.2125V19.9136H43.9294V12.2603C43.9294 10.7765 44.1897 8.12997 41.4043 8.12997C39.1396 8.12997 38.5235 9.81334 38.5235 11.757V19.9223H32.9614V4.19051H38.5235V6.22966H38.5148Z" fill="white"/>
<path d="M57.1622 9.85673L62.9325 4.19052H70.5598L62.6809 11.436L71.0283 19.9049H63.2449L57.1622 13.5272V19.9049H51.548V0.771698H57.1622V9.85673Z" fill="white"/>
<path d="M95.9059 6.13421C97.2422 4.39877 98.8388 3.63518 100.852 3.63518C103.117 3.63518 105.078 4.55496 106.206 6.64617C107.29 4.70247 109.399 3.63518 111.508 3.63518C115.473 3.63518 116.87 6.23834 116.87 9.86541V19.8702H111.308V12.4165C111.308 10.7852 111.36 8.12997 108.991 8.12997C106.414 8.12997 106.31 10.5249 106.31 12.4165V19.9223H100.748V12.4165C100.748 10.6811 100.748 8.02585 98.2748 8.02585C95.8018 8.02585 95.8018 10.6811 95.8018 12.4165V19.9223H90.2397V4.19052H95.8018V6.13421H95.9059Z" fill="white"/>
<path d="M123.933 12.0521C123.933 14.0391 125.27 15.575 127.491 15.575C129.712 15.575 131.101 14.0478 131.101 12.0521C131.101 10.0563 129.764 8.47705 127.491 8.47705C125.226 8.52912 123.933 10.1084 123.933 12.0521ZM136.455 19.9136H130.892V18.1782H130.84C129.86 19.7574 127.96 20.4256 126.103 20.4256C121.469 20.4256 118.172 16.5469 118.172 12.0521C118.172 7.55727 121.365 3.67856 126.051 3.67856C127.855 3.67856 129.756 4.33803 130.892 5.7177V4.19051H136.455V19.9136Z" fill="white"/>
<path d="M145.158 19.9136H139.596V8.78944H137.791V4.1992H139.596V0.719635H145.158V4.19052H148.299V8.78076H145.158V19.9049V19.9136Z" fill="white"/>
<path d="M153.245 17.9699C153.245 19.1414 152.264 20.1653 151.084 20.1653C149.904 20.1653 148.924 19.1934 148.924 17.9699C148.924 16.7464 149.904 15.7746 151.084 15.7746C152.264 15.7746 153.245 16.7464 153.245 17.9699Z" fill="white"/>
<path d="M160.412 12.0521C160.412 14.0391 161.749 15.575 164.022 15.575C166.295 15.575 167.58 14.0478 167.58 12.0521C167.58 10.0563 166.243 8.47705 164.022 8.47705C161.757 8.52912 160.412 10.1084 160.412 12.0521ZM160.612 5.97802H160.664C161.696 4.39877 163.553 3.67856 165.402 3.67856C170.087 3.67856 173.333 7.60933 173.333 12.1041C173.333 16.5989 170.139 20.4256 165.454 20.4256C163.649 20.4256 161.801 19.7661 160.612 18.3864V23.289H155.05V4.19051H160.612V5.97802Z" fill="white"/>
<path d="M180.5 0.771698H174.938V19.9136H180.5V0.771698Z" fill="white"/>
<path d="M79.2196 21.2412C84.3132 21.2412 88.4435 17.1543 88.4435 12.1041C88.4435 7.05399 84.3132 2.96703 79.2196 2.96703C74.1261 2.96703 69.9958 7.05399 69.9958 12.1041C69.9958 17.1543 74.1261 21.2412 79.2196 21.2412Z" fill="white"/>
<path d="M77.033 12.9892C79.4713 12.9892 81.441 11.0368 81.441 8.63324C81.441 6.22965 79.4713 4.27728 77.033 4.27728C74.5947 4.27728 72.625 6.22965 72.625 8.63324C72.625 11.0368 74.6034 12.9892 77.033 12.9892Z" fill="white"/>
<path d="M79.2196 2.96703L81.9529 8.42499L88.0357 9.29271L83.6016 13.5272L84.6342 19.4971L79.2283 16.6857L73.8224 19.4971L74.855 13.5272L70.473 9.29271L76.5036 8.42499L79.237 2.96703H79.2196Z" fill="white"/>
</g>
<defs>
<clipPath id="clip0_568_293">
<rect width="180" height="22.5607" fill="white" transform="translate(0.5 0.719635)"/>
</clipPath>
</defs>
</svg>
