<svg width="121" height="38" viewBox="0 0 121 38" fill="none" xmlns="http://www.w3.org/2000/svg">
<g clip-path="url(#clip0_568_307)">
<path d="M1.21611 13.4674H4.4733C4.5657 13.4674 4.6581 13.4828 4.74281 13.5213C4.82751 13.5598 4.90451 13.606 4.97381 13.6753C5.04311 13.7446 5.08931 13.8216 5.12782 13.9063C5.16632 13.991 5.18172 14.0834 5.18172 14.1758V19.0886H5.28952C5.91324 16.894 7.90759 12.8591 12.6278 12.8591C13.2669 12.8052 13.9061 12.8822 14.5144 13.0824C15.1227 13.2903 15.6771 13.6214 16.1391 14.0603C16.6088 14.4992 16.9784 15.0228 17.2248 15.6158C17.4712 16.2087 17.5944 16.8401 17.579 17.4792C17.579 19.9356 16.2469 20.5131 14.7916 20.5131C13.3362 20.5131 12.3506 19.9048 12.3506 18.9962C12.3506 17.664 13.0667 17.664 13.0667 15.7698C13.0667 14.6455 12.3968 13.9833 11.1263 13.9833C8.77771 13.9833 5.32032 17.664 5.32032 23.8473V36.6835C5.32032 36.876 5.24332 37.0531 5.11242 37.184C4.98151 37.3149 4.79671 37.3919 4.6119 37.3919H1.21611C1.12371 37.3919 1.03131 37.3765 0.938904 37.338C0.854202 37.2995 0.7695 37.2456 0.707898 37.1763C0.638596 37.107 0.592395 37.03 0.553894 36.9376C0.515393 36.8529 0.499993 36.7528 0.507693 36.6604V14.1681C0.507693 14.0757 0.523093 13.9833 0.561594 13.8986C0.600095 13.8139 0.646297 13.7369 0.715598 13.6676C0.7849 13.5983 0.861902 13.5521 0.946605 13.5136C1.03131 13.4751 1.12371 13.4597 1.21611 13.4597V13.4674Z" fill="white"/>
<path d="M26.2649 23.3622C25.6951 23.3545 25.1407 23.5701 24.7325 23.9705C24.3244 24.3709 24.0857 24.9099 24.0703 25.4874V25.9879C24.0703 30.8699 24.8558 37.0069 31.424 37.0069C37.6073 37.0069 39.2628 33.0952 39.8943 31.1548C39.9251 31.0624 39.9944 30.9777 40.0868 30.9315C40.1792 30.8776 40.2793 30.8622 40.3794 30.8853C40.441 30.893 40.4949 30.9161 40.5488 30.9469C40.6027 30.9777 40.6412 31.0239 40.672 31.0701C40.7028 31.124 40.7259 31.1779 40.7336 31.2395C40.7336 31.3011 40.7336 31.355 40.7182 31.4166C40.0637 33.357 38.2464 37.7847 31.3855 37.7847C23.9163 37.7847 18.5031 32.8411 18.5031 25.3873C18.5493 22.0762 19.8737 18.9115 22.1992 16.5552C24.5246 14.1989 27.6663 12.8283 30.9774 12.7359C32.3019 12.6974 33.6186 12.9284 34.8583 13.4058C36.0904 13.8832 37.2223 14.607 38.1771 15.5311C39.1319 16.4551 39.8866 17.5562 40.4102 18.7728C40.9338 19.9895 41.2033 21.3062 41.211 22.6307C41.211 22.7231 41.2033 22.8232 41.1648 22.9156C41.134 23.008 41.0801 23.085 41.0108 23.1543C40.9415 23.2236 40.8645 23.2775 40.7721 23.316C40.6874 23.3545 40.5873 23.3699 40.4949 23.3699H26.2803L26.2649 23.3622ZM34.9507 22.0762C35.1278 22.0762 35.3049 22.0069 35.4358 21.8914C35.5667 21.7759 35.6514 21.6065 35.6668 21.4294C35.6976 20.8904 35.6976 20.3514 35.6668 19.8047C35.6668 14.8611 33.6494 13.4982 30.7541 13.4982C26.0108 13.4982 24.6016 16.8478 24.1935 21.3062C24.1858 21.4063 24.1935 21.5064 24.2243 21.5988C24.2551 21.6912 24.3013 21.7759 24.3706 21.8529C24.4399 21.9222 24.5169 21.9838 24.6093 22.0223C24.7017 22.0608 24.7942 22.0839 24.8943 22.0839H34.9584L34.9507 22.0762Z" fill="white"/>
<path d="M45.7541 13.4674H48.9959C49.0883 13.4674 49.1807 13.4828 49.2654 13.5213C49.3501 13.5598 49.4271 13.606 49.4964 13.6753C49.5657 13.7446 49.6119 13.8216 49.6504 13.9063C49.6889 13.991 49.7043 14.0834 49.7043 14.1758V19.4351H49.8275C50.5359 17.4792 51.845 15.7929 53.5621 14.607C55.2793 13.4289 57.3198 12.8129 59.4066 12.8514C64.3193 12.8514 67.7151 15.123 67.7151 20.3052V36.6604C67.7151 36.8529 67.6381 37.03 67.5072 37.1609C67.3763 37.2918 67.1915 37.3688 67.0067 37.3688H63.6571C63.4723 37.3688 63.2875 37.2918 63.1566 37.1609C63.0257 37.03 62.9487 36.8452 62.9487 36.6604V18.8653C62.9487 18.0798 62.7715 17.3021 62.425 16.5937C62.0785 15.8853 61.5703 15.2693 60.9466 14.7995C60.3229 14.3221 59.5914 13.9987 58.8213 13.8524C58.0513 13.7061 57.2505 13.7369 56.4959 13.9525C54.463 14.6917 52.7228 16.0701 51.5215 17.8796C50.328 19.6892 49.7428 21.8298 49.8506 23.9859V36.6527C49.8506 36.8452 49.7736 37.0223 49.6427 37.1532C49.5118 37.2841 49.327 37.3611 49.1422 37.3611H45.7618C45.5693 37.3611 45.3922 37.2841 45.2613 37.1532C45.1304 37.0223 45.0534 36.8375 45.0534 36.6527V14.1604C45.0534 14.068 45.0688 13.9756 45.1073 13.8909C45.1458 13.8062 45.192 13.7292 45.2613 13.6599C45.3306 13.5906 45.4076 13.5444 45.4923 13.5059C45.577 13.4674 45.6694 13.452 45.7618 13.452L45.7541 13.4674Z" fill="white"/>
<path d="M79.6735 23.3622C79.1037 23.3622 78.557 23.5778 78.1489 23.9782C77.7408 24.3786 77.5021 24.9176 77.4944 25.4874C77.4867 25.6414 77.4867 25.7877 77.4944 25.9417C77.4944 30.8237 78.2798 36.9607 84.8635 36.9607C91.0313 36.9607 92.6869 33.049 93.3337 31.1086C93.3645 31.0085 93.4338 30.9238 93.5262 30.8776C93.6186 30.8237 93.7187 30.816 93.8188 30.8391C93.8727 30.8468 93.9343 30.8699 93.9805 30.9084C94.0267 30.9392 94.0729 30.9854 94.096 31.0316C94.1268 31.0855 94.1422 31.1394 94.1499 31.1933C94.1499 31.2549 94.1499 31.3088 94.1345 31.3627C93.4954 33.3031 91.6781 37.7308 84.8019 37.7308C77.3327 37.7308 71.9348 32.7872 71.9348 25.3334C71.9964 22.0223 73.3286 18.8575 75.6617 16.509C77.9949 14.1604 81.152 12.8052 84.4631 12.7282C85.7875 12.6897 87.1042 12.9207 88.344 13.3981C89.576 13.8755 90.7079 14.5993 91.6627 15.5234C92.6176 16.4474 93.3722 17.5485 93.8958 18.7651C94.4194 19.9818 94.6889 21.2985 94.6966 22.623C94.6966 22.7154 94.6889 22.8155 94.6504 22.9079C94.6196 23.0003 94.5657 23.0773 94.4964 23.1466C94.4271 23.2159 94.3501 23.2698 94.2654 23.3083C94.173 23.3468 94.0806 23.3622 93.9882 23.3622H79.6812H79.6735ZM88.4056 22.0762C88.5827 22.0762 88.7598 22.0146 88.8907 21.8914C89.0216 21.7682 89.1063 21.5988 89.114 21.4217C89.1448 20.8827 89.1448 20.3437 89.114 19.797C89.114 14.8534 87.1119 13.4905 84.2012 13.4905C79.4579 13.4905 78.0642 16.8401 77.6407 21.2985C77.633 21.3986 77.6407 21.4987 77.6715 21.5911C77.7023 21.6835 77.7562 21.7759 77.8178 21.8452C77.8871 21.9222 77.9641 21.9761 78.0565 22.0146C78.1489 22.0531 78.249 22.0685 78.3491 22.0685H88.3979L88.4056 22.0762Z" fill="white"/>
<path d="M105.5 23.3622C104.93 23.3545 104.376 23.5701 103.96 23.9705C103.544 24.3709 103.313 24.9099 103.298 25.4874V25.9879C103.298 30.8699 104.083 37.0069 110.667 37.0069C116.835 37.0069 118.49 33.0952 119.122 31.1548C119.16 31.0624 119.222 30.9777 119.314 30.9315C119.407 30.8776 119.507 30.8622 119.607 30.8853C119.668 30.893 119.722 30.9161 119.768 30.9469C119.822 30.9777 119.861 31.0239 119.892 31.0701C119.922 31.124 119.946 31.1779 119.953 31.2395C119.953 31.3011 119.953 31.3627 119.938 31.4166C119.299 33.357 117.466 37.7847 110.605 37.7847C103.136 37.7847 97.7228 32.8411 97.7228 25.3873C97.7844 22.0762 99.1242 18.9115 101.465 16.5629C103.806 14.2143 106.963 12.8591 110.274 12.7821C111.599 12.7436 112.915 12.9746 114.155 13.452C115.387 13.9294 116.519 14.6532 117.474 15.5773C118.429 16.5013 119.183 17.6024 119.707 18.819C120.23 20.0357 120.5 21.3524 120.508 22.6769C120.508 22.7693 120.5 22.8694 120.461 22.9618C120.431 23.0542 120.377 23.1312 120.307 23.2005C120.238 23.2698 120.161 23.3237 120.069 23.3622C119.984 23.4007 119.884 23.4161 119.792 23.4161L105.5 23.3699V23.3622ZM114.163 22.0762C114.34 22.0762 114.517 22.0146 114.648 21.8914C114.779 21.7682 114.863 21.5988 114.871 21.4217C114.902 20.8827 114.902 20.3437 114.871 19.797C114.871 14.8534 112.854 13.4905 109.958 13.4905C105.215 13.4905 103.898 16.8401 103.398 21.2985C103.39 21.3986 103.398 21.4987 103.429 21.5911C103.459 21.6835 103.513 21.7759 103.575 21.8452C103.637 21.9145 103.729 21.9761 103.814 22.0146C103.906 22.0531 104.006 22.0685 104.106 22.0685H114.155L114.163 22.0762Z" fill="white"/>
<path d="M115.926 2.41761C117.197 0.661965 117.62 0.223053 118.552 0.223053C119.022 0.269254 119.46 0.50026 119.768 0.85447C120.076 1.20868 120.246 1.67069 120.23 2.1481C120.215 2.45611 120.123 2.75642 119.961 3.02593C119.799 3.28773 119.576 3.51104 119.306 3.66504L110.79 10.164C110.736 10.2102 110.667 10.2333 110.598 10.2333C110.528 10.2333 110.459 10.2102 110.405 10.164C110.343 10.1024 110.313 10.0177 110.313 9.93301C110.313 9.84831 110.343 9.76361 110.405 9.69431L115.918 2.41761H115.926Z" fill="white"/>
</g>
<defs>
<clipPath id="clip0_568_307">
<rect width="120" height="37.5539" fill="white" transform="translate(0.5 0.223053)"/>
</clipPath>
</defs>
</svg>
