<svg width="181" height="30" viewBox="0 0 181 30" fill="none" xmlns="http://www.w3.org/2000/svg">
<g clip-path="url(#clip0_568_327)">
<path d="M26.0583 0.47767H3.98641C3.5233 0.460195 3.06893 0.538835 2.63204 0.704855C2.20389 0.870874 1.81068 1.13301 1.48738 1.45631C1.16408 1.77961 0.901944 2.17282 0.735925 2.60097C0.561168 3.03786 0.482527 3.50097 0.500003 3.96408V26.0447C0.500003 27.967 2.06408 29.5223 3.97767 29.5223H26.0583C27.9806 29.5223 29.5359 27.9583 29.5359 26.0447V3.96408C29.5097 3.0466 29.134 2.18155 28.4874 1.53495C27.8408 0.88835 26.9757 0.512622 26.0583 0.47767ZM24.5029 9.6L18.867 21.5971L18.5087 21.833H18.2728L17.9146 21.5971L14.9175 15.1136L11.9204 21.5971L11.5621 21.833H11.2039L10.8456 21.5971L5.3233 9.6C5.20097 9.36408 5.20097 9.24175 5.3233 9.11942L5.68156 8.8835H8.08447L8.44272 9.11942L11.2039 15.2359L14.201 8.63883L14.5592 8.40291H14.7951L15.1534 8.63883L18.1505 15.2359L21.034 9.23301L21.3922 8.99709H24.0311L24.3893 9.23301L24.5117 9.59126L24.5029 9.6Z" fill="white"/>
<path d="M40.5806 6.48058L42.6165 6.35825H43.4554L44.2942 6.48058L46.8107 19.7971L49.9301 6.48058L50.7689 6.35825H51.6078L53.2854 6.48058L56.5272 20.1641L59.0437 6.48058L60.7214 6.35825H61.6825L62.5214 6.48058L58.3185 24.2447L56.3961 24.367L54.2379 24.2447L51.3544 12.4835L48.235 24.2447L47.2738 24.367H46.3126L44.635 24.2447L40.5544 6.48058H40.5806ZM70.5777 15.8388L70.3418 14.8777L69.8612 14.2748L69.0223 14.0388L67.9388 13.9165C67.1 13.9165 66.0165 14.0388 65.0553 14.3971L64.5748 13.2L64.4524 11.8806L66.6107 11.4L68.6466 11.2777C70.4466 11.2777 71.766 11.6359 72.6049 12.4748C73.566 13.3136 74.1689 14.633 74.1689 16.433V23.8689L72.0107 24.3495L69.2495 24.5854L66.8466 24.3495C66.1301 24.2272 65.6495 23.9913 64.9243 23.633C64.4437 23.2748 64.0854 22.9165 63.8408 22.3136C63.6049 21.833 63.4825 21.1165 63.4825 20.2777C63.4825 19.4388 63.6049 18.7136 63.9631 18.2417C64.3214 17.7612 64.6796 17.2806 65.2825 17.0447C65.7631 16.6864 66.366 16.5641 67.0825 16.3282C68.3058 16.066 69.5641 16.0311 70.8049 16.2058L70.5689 15.8476L70.5777 15.8388ZM70.5777 18.3553L69.9748 18.233H69.3719C68.6554 18.233 67.8078 18.3553 67.4495 18.5913C66.9689 18.8272 66.733 19.3078 66.733 19.9107L66.9689 20.8718L67.5719 21.3524L68.4107 21.5884H69.8524L70.4554 21.466V18.3466H70.5777V18.3553ZM76.8253 6.23592L78.6253 6.11359L80.4253 6.23592V19.0718L80.5476 20.2689L80.7835 20.9854L81.2641 21.3437L81.9806 21.466H82.3389L82.8194 21.3437L83.0554 23.3796V24.0961L82.0942 24.2184H81.133C79.9359 24.2184 78.8524 23.8602 78.0136 23.2573C77.2971 22.5408 76.9301 21.335 76.9301 19.7796L76.8078 6.21845L76.8253 6.23592ZM84.8641 11.5223L86.6641 11.4L88.4641 11.5223V18.2417L88.5864 19.9194L89.067 20.8806C89.3117 21.1165 89.5476 21.3612 89.9058 21.3612L90.9893 21.4835L92.5447 21.3612V11.6447L94.3447 11.5223L96.1447 11.6447V23.8864L93.9864 24.367L91.2253 24.6029L88.8223 24.367C88.1058 24.2447 87.2583 24.0087 86.7864 23.5282C86.1835 23.1699 85.8253 22.567 85.467 21.6058C85.1 20.566 84.934 19.465 84.9864 18.3641L84.8641 11.5223ZM99.5 14.2835H97.8223L97.7 13.8029L102.384 7.8H102.986V11.5223H105.984L106.106 12.2388V13.4359L105.984 14.1524H102.986V19.1942L103.109 20.3913L103.467 21.1078L104.07 21.466L104.909 21.5884H105.625L106.228 21.466L106.464 22.4272L106.586 23.266V24.1049L104.184 24.3408C102.628 24.3408 101.545 23.9825 100.706 23.3796C100.286 22.9078 99.9631 22.3573 99.7621 21.7631C99.5524 21.1689 99.4738 20.5311 99.5088 19.9019V14.266L99.5 14.2835ZM114.022 24.6029C113.061 24.6029 111.986 24.4806 111.261 24.1223C110.545 23.7641 109.942 23.4058 109.339 22.8029C108.858 22.2 108.5 21.6058 108.255 20.6447C107.749 18.9233 107.749 17.0884 108.255 15.367C108.5 14.5282 108.858 13.8029 109.339 13.2087C109.819 12.6058 110.422 12.1252 111.261 11.8893C111.978 11.5311 112.939 11.4087 114.022 11.4087C114.984 11.4087 116.067 11.5311 116.784 11.8893L118.828 13.2087C119.309 13.8117 119.667 14.5282 119.912 15.367C120.384 17.0971 120.384 18.9146 119.912 20.6447C119.676 21.3612 119.309 22.2087 118.828 22.8029C118.348 23.4058 117.745 23.8864 116.784 24.1223C115.822 24.3583 114.984 24.6029 114.022 24.6029ZM114.022 21.8417C114.861 21.8417 115.7 21.4835 116.067 20.8806C116.425 20.1641 116.67 19.2029 116.67 17.8835C116.67 16.5641 116.425 15.6029 116.067 14.8864C115.709 14.2835 114.984 13.9252 114.022 13.9252C113.184 13.9252 112.345 14.2835 111.986 14.8864C111.628 15.6029 111.384 16.5641 111.384 17.8835C111.384 19.2029 111.619 20.1641 111.986 20.8806C112.345 21.4835 113.07 21.8417 114.022 21.8417ZM122.9 11.5223L123.617 11.4H125.058L125.661 11.5223L125.784 11.8806L125.906 12.3612L126.028 12.8417V13.2L126.509 12.4835L127.225 11.8806L128.186 11.4L129.384 11.2777C131.419 11.2777 132.625 11.9942 133.219 13.5583L134.539 11.8806C135.142 11.4 135.858 11.2777 136.819 11.2777C138.384 11.2777 139.336 11.6359 140.061 12.4748C140.664 13.1913 141.022 14.5107 141.022 16.1971V24.3583L139.222 24.4806L137.422 24.3583V17.1583C137.422 16.3194 137.3 15.4806 137.064 15.1223C136.828 14.6417 136.461 14.4058 135.745 14.4058L134.906 14.5282C134.635 14.6417 134.399 14.8078 134.189 15.0087L133.709 15.9699L133.473 17.6476V24.4893L131.673 24.6117L129.873 24.4893V17.2893C129.873 16.4505 129.75 15.6117 129.515 15.2534C129.27 14.7728 128.912 14.5369 128.195 14.5369L127.356 14.6592C127.085 14.7728 126.841 14.9388 126.64 15.1398L126.159 16.101L125.923 17.901V24.6204L124.123 24.7427L122.323 24.6204V11.6621L122.926 11.5398L122.9 11.5223ZM150.984 15.8388L150.748 14.8777L150.267 14.2748L149.428 14.0388L148.345 13.9165C147.506 13.9165 146.422 14.0388 145.461 14.3971L144.981 13.2L144.858 11.8806L147.017 11.4L149.052 11.2777C150.852 11.2777 152.172 11.6359 153.011 12.4748C153.972 13.3136 154.575 14.633 154.575 16.433V23.8689L152.417 24.3495L149.655 24.5854L147.252 24.3495C146.536 24.2272 146.055 23.9913 145.33 23.633C144.85 23.2748 144.491 22.9165 144.247 22.3136C144.011 21.833 143.888 21.1165 143.888 20.2777C143.888 19.4388 144.011 18.7136 144.369 18.2417C144.727 17.7612 145.085 17.2806 145.688 17.0447C146.169 16.6864 146.772 16.5641 147.488 16.3282C148.712 16.066 149.97 16.0311 151.211 16.2058L150.975 15.8476L150.984 15.8388ZM150.984 18.3553L150.381 18.233H149.778C149.061 18.233 148.214 18.3553 147.855 18.5913C147.375 18.8272 147.139 19.3078 147.139 19.9107L147.375 20.8718L147.978 21.3524L148.817 21.5884H150.258L150.861 21.466L150.984 18.3466V18.3553ZM157.817 14.2835H156.139L156.017 13.8029L160.7 7.8H161.303V11.5223H164.3L164.422 12.1252V13.3223L164.3 14.0388H161.303V19.0806L161.425 20.2777L161.784 20.9942L162.386 21.3524L163.225 21.4748H163.942L164.545 21.3524L164.781 22.3136L164.903 23.1524V23.9913L162.5 24.2272C160.945 24.2272 159.861 23.8689 159.022 23.266C158.603 22.7942 158.28 22.2437 158.079 21.6495C157.869 21.0553 157.79 20.4175 157.825 19.7884V14.266L157.817 14.2835ZM176.184 7.0835C178.586 7.0835 180.5 9.00583 180.5 11.4C180.5 13.7942 178.578 15.7165 176.184 15.7165C173.789 15.7165 171.867 13.7942 171.867 11.4C171.867 9.00583 173.789 7.0835 176.184 7.0835ZM176.184 15C177.118 14.9651 178.001 14.5718 178.648 13.9078C179.294 13.235 179.661 12.335 179.661 11.4C179.661 9.36408 178.097 7.8 176.184 7.8C174.27 7.8 172.706 9.47767 172.706 11.4C172.584 13.3223 174.148 15 176.184 15ZM175.458 12.1165V14.0388H174.261V8.63884H176.184C177.748 8.63884 178.342 9.11942 178.342 10.2029C178.342 10.9194 177.984 11.4 177.258 11.767L177.617 12.2476L178.578 14.0476H177.381L177.022 13.8117L176.184 12.2476L175.467 12.1252L175.458 12.1165ZM175.458 11.1553H175.939C176.655 11.1553 176.9 10.9194 176.9 10.4388C176.9 9.95825 176.778 9.72233 176.061 9.72233H175.458V11.1641V11.1553Z" fill="white"/>
</g>
<defs>
<clipPath id="clip0_568_327">
<rect width="180" height="29.0447" fill="white" transform="translate(0.5 0.477669)"/>
</clipPath>
</defs>
</svg>
