<svg width="101" height="44" viewBox="0 0 101 44" fill="none" xmlns="http://www.w3.org/2000/svg">
<g clip-path="url(#clip0_568_255)">
<mask id="mask0_568_255" style="mask-type:luminance" maskUnits="userSpaceOnUse" x="0" y="0" width="101" height="44">
<path d="M100.5 0.385422H0.5V43.6146H100.5V0.385422Z" fill="white"/>
</mask>
<g mask="url(#mask0_568_255)">
<path d="M100.5 22C100.5 33.9375 78.1146 43.6146 50.5 43.6146C22.8854 43.6146 0.5 33.9375 0.5 22C0.5 10.0625 22.8854 0.385422 50.5 0.385422C78.1146 0.385422 100.5 10.0625 100.5 22Z" fill="white"/>
<path d="M17.776 21.3073C17.8906 21.3073 17.9688 21.2917 18.0104 21.2656C18.0521 21.2396 18.0729 21.1719 18.0729 21.0677C18.0729 20.6979 17.9896 20.3386 17.8281 19.9948C17.6667 19.6458 17.4271 19.3646 17.1094 19.1458C16.7917 18.9271 16.4115 18.8177 15.974 18.8177C15.2917 18.8177 14.7396 19.0573 14.3177 19.5365C13.8958 20.0156 13.6927 20.6094 13.7031 21.3125H17.776M14 24.1354C14.2188 24.5104 14.5208 24.8073 14.9115 25.0208C15.2969 25.2344 15.724 25.3438 16.1875 25.3438C16.651 25.3438 17.0938 25.2448 17.4792 25.0417C17.8646 24.8386 18.2344 24.5261 18.5781 24.099C18.6354 24.0417 18.6823 24.0104 18.7188 24.0104C18.7552 24.0104 18.8073 24.0261 18.875 24.0625L19.9323 24.5313C20.0104 24.5677 20.0521 24.6198 20.0521 24.6875C20.0521 24.724 20.0313 24.7761 19.9844 24.8438C19.4635 25.5938 18.8906 26.125 18.2604 26.4427C17.6302 26.7604 16.8542 26.9167 15.9271 26.9167C15 26.9167 14.2604 26.7188 13.5625 26.3281C12.8646 25.9375 12.3177 25.3854 11.9271 24.6823C11.5365 23.9792 11.3385 23.1771 11.3385 22.2761C11.3385 21.3073 11.5417 20.4531 11.9427 19.7136C12.349 18.974 12.8958 18.4011 13.5885 18C14.2813 17.5938 15.0521 17.3958 15.8958 17.3958C16.7396 17.3958 17.5313 17.5886 18.1927 17.9688C18.8594 18.349 19.3698 18.9011 19.7344 19.625C20.099 20.3438 20.2813 21.2031 20.2813 22.1979V22.2656C20.2813 22.3802 20.2656 22.4636 20.2292 22.5052C20.1927 22.5521 20.1198 22.5781 20.0052 22.5938H13.8698C13.7448 22.5938 13.6771 22.6875 13.6771 22.8698C13.6771 23.3438 13.7865 23.7656 14.0052 24.1406L14 24.1354Z" fill="black"/>
<path d="M21.9896 26.6719C21.9427 26.625 21.9219 26.5469 21.9219 26.4323V17.8594C21.9219 17.6615 22 17.5677 22.1667 17.5677H23.901C24.0521 17.5677 24.125 17.6563 24.125 17.8281V18.7292C24.125 18.7969 24.1406 18.8386 24.1771 18.849C24.2135 18.8594 24.2552 18.849 24.3177 18.7969C24.8594 18.3229 25.3646 17.974 25.8333 17.7396C26.3021 17.5104 26.8073 17.3958 27.349 17.3958C28.2031 17.3958 28.875 17.6406 29.3698 18.1302C29.8594 18.6198 30.1094 19.2708 30.1094 20.0781V26.3802C30.1094 26.6198 29.9896 26.7448 29.7448 26.7448H28.151C28.0365 26.7448 27.9583 26.724 27.9167 26.6771C27.875 26.6302 27.8542 26.5521 27.8542 26.4375V20.4792C27.8542 20.0261 27.7292 19.6771 27.4792 19.4323C27.2292 19.1823 26.8698 19.0625 26.3958 19.0625C25.9896 19.0625 25.625 19.1563 25.2969 19.3386C24.9688 19.5261 24.5937 19.8229 24.1771 20.2396V26.4011C24.1771 26.5261 24.151 26.6198 24.0885 26.6719C24.0312 26.724 23.9271 26.75 23.776 26.75H22.2344C22.1198 26.75 22.0365 26.7292 21.9896 26.6823" fill="black"/>
<path d="M38.1615 21.3073C38.276 21.3073 38.3542 21.2917 38.3958 21.2656C38.4375 21.2396 38.4583 21.1719 38.4583 21.0677C38.4583 20.6979 38.375 20.3386 38.2135 19.9948C38.0521 19.6458 37.8125 19.3646 37.4948 19.1458C37.1771 18.9271 36.7969 18.8177 36.3594 18.8177C35.6771 18.8177 35.125 19.0573 34.7031 19.5365C34.2812 20.0156 34.0781 20.6094 34.0885 21.3125H38.1615M34.3854 24.1354C34.6042 24.5104 34.9062 24.8073 35.2969 25.0208C35.6823 25.2344 36.1094 25.3438 36.5729 25.3438C37.0365 25.3438 37.4792 25.2448 37.8646 25.0417C38.25 24.8386 38.6198 24.5261 38.9635 24.099C39.0208 24.0417 39.0677 24.0104 39.1042 24.0104C39.1406 24.0104 39.1927 24.0261 39.2604 24.0625L40.3177 24.5313C40.3958 24.5677 40.4375 24.6198 40.4375 24.6875C40.4375 24.724 40.4167 24.7761 40.3698 24.8438C39.849 25.5938 39.276 26.125 38.6458 26.4427C38.0156 26.7604 37.2396 26.9167 36.3125 26.9167C35.3854 26.9167 34.6458 26.7188 33.9479 26.3281C33.25 25.9375 32.7031 25.3854 32.3125 24.6823C31.9219 23.9792 31.724 23.1771 31.724 22.2761C31.724 21.3073 31.9271 20.4531 32.3281 19.7136C32.7344 18.974 33.2812 18.4011 33.974 18C34.6667 17.5938 35.4375 17.3958 36.2812 17.3958C37.125 17.3958 37.9167 17.5886 38.5781 17.9688C39.2448 18.349 39.7552 18.9011 40.1198 19.625C40.4844 20.3438 40.6667 21.2031 40.6667 22.1979V22.2656C40.6667 22.3802 40.651 22.4636 40.6146 22.5052C40.5781 22.5521 40.5052 22.5781 40.3906 22.5938H34.2552C34.1302 22.5938 34.0625 22.6875 34.0625 22.8698C34.0625 23.3438 34.1719 23.7656 34.3906 24.1406L34.3854 24.1354Z" fill="black"/>
<path d="M44.5573 26.3594C44.5573 26.5104 44.5312 26.6094 44.4687 26.6615C44.4115 26.7135 44.3073 26.7396 44.1562 26.7396H42.6302C42.5052 26.7396 42.4115 26.7188 42.3594 26.6719C42.3073 26.625 42.2812 26.5469 42.2812 26.4323L42.3333 14.1927C42.3333 13.9948 42.4219 13.901 42.5937 13.901H44.3125C44.474 13.901 44.5573 13.9948 44.5573 14.1771V26.3646" fill="black"/>
<path d="M51.3333 22.6719C51.3333 22.8906 51.1979 23 50.9323 23H46.9115C46.7969 23 46.7136 22.9792 46.6667 22.9323C46.6198 22.8854 46.599 22.8125 46.599 22.7083V21.6198C46.599 21.4375 46.6719 21.3438 46.8229 21.3438H51.1042C51.2552 21.3438 51.3281 21.4167 51.3281 21.5677V22.6771" fill="black"/>
<path d="M53.4167 26.6719C53.3698 26.625 53.3438 26.5469 53.3438 26.4323V17.8594C53.3438 17.6615 53.4219 17.5677 53.5885 17.5677H55.3073C55.4688 17.5677 55.5521 17.6563 55.5521 17.8281V18.7292C55.5521 18.7969 55.5677 18.8386 55.6042 18.849C55.6406 18.8594 55.6823 18.849 55.7448 18.7969C56.2656 18.3229 56.7552 17.9688 57.2188 17.7344C57.6823 17.4948 58.1719 17.3802 58.6927 17.3802C59.3177 17.3802 59.8438 17.5261 60.2708 17.8229C60.6979 18.1146 60.9948 18.5 61.1562 18.974C61.1771 19.0104 61.2083 19.0261 61.2448 19.0261C61.2917 19.0261 61.3438 19 61.401 18.9375C62.4271 17.9115 63.4531 17.3958 64.4688 17.3958C65.2917 17.3958 65.9375 17.6354 66.4115 18.125C66.8854 18.6094 67.1198 19.2813 67.1198 20.1354V26.3854C67.1198 26.625 67 26.75 66.7552 26.75H65.1615C65.0573 26.75 64.9844 26.7292 64.9375 26.6823C64.8906 26.6354 64.8698 26.5573 64.8698 26.4427V20.4844C64.8698 20.0313 64.7552 19.6823 64.526 19.4375C64.2969 19.1875 63.9583 19.0677 63.5208 19.0677C63.1615 19.0677 62.8177 19.1615 62.4792 19.3542C62.1406 19.5469 61.8437 19.7708 61.5781 20.0365C61.4375 20.1875 61.3698 20.3542 61.3698 20.5365V26.3906C61.3698 26.6302 61.25 26.7552 61.0052 26.7552H59.4115C59.2135 26.7552 59.1198 26.6511 59.1198 26.4427V20.4844C59.1198 20.0313 59.0052 19.6823 58.7813 19.4375C58.5573 19.1875 58.2187 19.0677 57.7656 19.0677C57.3854 19.0677 57.026 19.1615 56.6979 19.3438C56.3698 19.5313 56.0052 19.8281 55.6146 20.2448V26.4063C55.6146 26.5313 55.5885 26.625 55.526 26.6771C55.4688 26.7292 55.3646 26.7552 55.2135 26.7552H53.6719C53.5573 26.7552 53.474 26.7344 53.4323 26.6875" fill="black"/>
<path d="M75.1719 21.3073C75.2864 21.3073 75.3646 21.2917 75.4062 21.2656C75.4479 21.2396 75.4687 21.1719 75.4687 21.0677C75.4687 20.6979 75.3906 20.3386 75.2239 19.9948C75.0625 19.6458 74.8229 19.3646 74.5052 19.1458C74.1875 18.9271 73.8073 18.8177 73.3698 18.8177C72.6875 18.8177 72.1354 19.0573 71.7135 19.5365C71.2917 20.0156 71.0885 20.6094 71.0989 21.3125H75.1719M71.3906 24.1354C71.6094 24.5104 71.9167 24.8073 72.3021 25.0208C72.6875 25.2344 73.1146 25.3438 73.5781 25.3438C74.0417 25.3438 74.4844 25.2448 74.8698 25.0417C75.2552 24.8386 75.625 24.5261 75.9687 24.099C76.026 24.0417 76.0729 24.0104 76.1094 24.0104C76.1458 24.0104 76.1979 24.0261 76.2656 24.0625L77.3229 24.5313C77.401 24.5677 77.4479 24.6198 77.4479 24.6875C77.4479 24.724 77.4271 24.7761 77.3802 24.8438C76.8594 25.5938 76.2864 26.125 75.6562 26.4427C75.026 26.7604 74.25 26.9167 73.3229 26.9167C72.3958 26.9167 71.6562 26.7188 70.9583 26.3281C70.2604 25.9375 69.7135 25.3854 69.3177 24.6823C68.9271 23.9792 68.7292 23.1771 68.7292 22.2761C68.7292 21.3073 68.9323 20.4531 69.3333 19.7136C69.7396 18.974 70.2865 18.4011 70.9792 18C71.6719 17.5938 72.4427 17.3958 73.2812 17.3958C74.1198 17.3958 74.9167 17.5886 75.5781 17.9688C76.2396 18.349 76.7552 18.9011 77.1198 19.625C77.4844 20.3438 77.6667 21.2031 77.6667 22.1979V22.2656C77.6667 22.3802 77.651 22.4636 77.6146 22.5052C77.5781 22.5521 77.5052 22.5781 77.3906 22.5938H71.2552C71.1302 22.5938 71.0625 22.6875 71.0625 22.8698C71.0625 23.3438 71.1719 23.7656 71.3906 24.1406V24.1354Z" fill="black"/>
<path d="M84.474 19.1146C84.1771 18.9583 83.849 18.8802 83.4792 18.8802C82.7865 18.8802 82.2292 19.1615 81.8073 19.7188C81.3854 20.276 81.1719 21.1094 81.1719 22.2031C81.1719 23.2969 81.3802 24.1302 81.7865 24.6615C82.1979 25.1927 82.7448 25.4583 83.4271 25.4583C83.7865 25.4583 84.1146 25.375 84.4167 25.2083C84.7188 25.0417 84.9531 24.8229 85.125 24.5573C85.2969 24.2917 85.3854 24.0208 85.3854 23.7448V19.8333C85.0729 19.5104 84.7708 19.2708 84.474 19.1146ZM85.4167 26.4323V25.8594C85.4167 25.7552 85.3906 25.7031 85.3281 25.7031C85.2917 25.7031 85.25 25.7292 85.1875 25.7917C84.849 26.1146 84.4792 26.3802 84.0677 26.5938C83.6563 26.8073 83.1563 26.9167 82.5677 26.9167C81.849 26.9167 81.2136 26.7396 80.6615 26.3906C80.1042 26.0365 79.6719 25.5156 79.3542 24.8125C79.0365 24.1146 78.8802 23.2552 78.8802 22.2396C78.8802 21.2917 79.0521 20.4479 79.3906 19.7135C79.7292 18.974 80.1979 18.401 80.7865 18C81.375 17.5938 82.0365 17.3958 82.7604 17.3958C83.2448 17.3958 83.6719 17.474 84.0365 17.6302C84.401 17.7865 84.75 18.0156 85.0833 18.3125C85.1406 18.3698 85.2083 18.401 85.2761 18.401C85.3438 18.401 85.3802 18.3281 85.3802 18.1771V14.1771C85.3802 13.9896 85.4583 13.901 85.6198 13.901H87.3698C87.5417 13.901 87.6302 14 87.6302 14.1927V26.4167C87.6302 26.5313 87.6042 26.6146 87.5521 26.6667C87.5 26.7188 87.4063 26.7448 87.2656 26.7448H85.7396C85.5208 26.7448 85.4115 26.6406 85.4115 26.4323H85.4167Z" fill="black"/>
</g>
</g>
<defs>
<clipPath id="clip0_568_255">
<rect width="100" height="43.2292" fill="white" transform="translate(0.5 0.385422)"/>
</clipPath>
</defs>
</svg>
