<svg width="121" height="40" viewBox="0 0 121 40" fill="none" xmlns="http://www.w3.org/2000/svg">
<g clip-path="url(#clip0_568_321)">
<path d="M57.4452 24.6073L56.1211 31.2512C55.9585 32.5676 55.3003 33.7678 54.2781 34.6041C53.256 35.4404 51.9474 35.8508 50.631 35.7501C46.8212 35.7501 45.8146 33.3884 46.6509 30.051C47.8356 25.3275 51.6841 23.9337 57.4917 24.5531M63.4774 15.052L59.3811 15.3694L58.0957 21.8817C56.547 21.781 56.0669 21.781 54.2394 21.781C48.5558 21.781 43.5612 24.1427 42.2526 29.7722C41.0756 34.8364 43.9484 38.7623 50.2283 38.7623C56.5083 38.7623 59.4585 35.4094 60.4574 30.6937L63.4696 15.052H63.4774ZM19.5179 24.8784C13.5787 24.3363 8.47574 24.8784 8.38282 26.8452C8.28215 29.8729 18.1705 27.2788 17.9769 32.7689C17.6904 41.0079 3.91485 39.1031 0.5 38.0654L1.11173 35.6417C6.99674 36.5477 13.1992 36.6484 13.3386 33.4116C13.4857 29.9581 3.51994 33.0632 3.75999 27.4802C3.93808 23.3219 10.1715 21.0686 20.3387 22.5786L19.5179 24.8861V24.8784ZM35.5236 30.4459C35.1983 32.0101 34.3465 33.4194 33.1153 34.426C31.8764 35.4404 30.3277 35.9902 28.7326 35.9979C25.3642 35.9979 23.8465 34.0388 24.7369 30.4382C25.0622 28.8585 25.9139 27.4337 27.1529 26.3961C28.3918 25.3585 29.9405 24.77 31.5512 24.7312C34.7724 24.7312 36.3676 27.0233 35.5081 30.4382M32.0932 21.9359C26.185 21.9359 21.4382 25.3585 20.269 30.4459C19.1075 35.5256 22.2668 38.9559 28.1828 38.9559C34.0988 38.9559 38.8377 35.5256 40.007 30.4459C41.1763 25.3662 37.9937 21.9359 32.0932 21.9359ZM100.313 38.8708H95.179C90.0683 33.822 85.5616 28.1926 81.7441 22.1062H85.5074C89.6656 27.8441 100.321 38.8708 100.321 38.8708M105.695 5.56624L108.056 0.641418L108.714 5.65142L113.531 3.96335L110.178 8.27644L113.825 11.1028L108.955 11.4745L108.691 16.6781L105.981 12.8373L102.001 16.5077L103.488 11.3351L98.8029 10.6847L103.372 8.10609L101.498 3.64587L105.702 5.56624H105.695ZM115.707 30.5001C115.382 32.0952 114.514 33.52 113.26 34.5499C112.005 35.5798 110.434 36.1451 108.807 36.1528C105.385 36.1528 103.836 34.1627 104.758 30.4924C105.083 28.8817 105.95 27.4337 107.212 26.3806C108.474 25.3275 110.046 24.7312 111.688 24.6925C114.963 24.6925 116.582 27.031 115.707 30.4846M112.222 21.8662C106.229 21.8662 101.397 25.3352 100.22 30.5001C99.0352 35.665 102.249 39.1805 108.25 39.1805C114.251 39.1805 119.067 35.6727 120.26 30.5001C121.452 25.3275 118.216 21.8662 112.215 21.8662" fill="white"/>
<path d="M77.8647 37.4382C87.0716 31.9946 95.2254 24.9481 101.947 16.6239C97.6336 30.02 87.2962 37.2988 77.8647 37.4382Z" fill="white"/>
<path d="M74.0007 24.437C75.8359 24.437 76.8658 25.1029 76.8658 26.3961C76.8658 29.8109 70.1987 29.5941 67.2639 28.9979C67.775 27.635 68.6964 26.458 69.9044 25.6372C71.1124 24.8164 72.5449 24.3905 74.0007 24.4215M80.8614 26.1948C80.8614 23.7091 78.8868 21.8971 74.4498 21.8971C67.1865 21.8971 62.4552 26.6206 62.4552 32.4514C62.4552 36.2225 65.5836 39.3508 71.306 39.3508C73.629 39.3663 75.9133 38.6927 77.8647 37.4305C72.8547 37.9725 66.6831 37.4305 66.6831 32.072V31.4293C73.5206 32.8464 80.8459 31.1273 80.8459 26.2102" fill="white"/>
</g>
<defs>
<clipPath id="clip0_568_321">
<rect width="120" height="38.7172" fill="white" transform="translate(0.5 0.641418)"/>
</clipPath>
</defs>
</svg>
