<svg width="141" height="42" viewBox="0 0 141 42" fill="none" xmlns="http://www.w3.org/2000/svg">
<g clip-path="url(#clip0_568_270)">
<path d="M18.7454 0.828641C12.4465 0.808079 6.2231 2.19259 0.527416 4.89307C0.993489 11.1851 2.86463 17.2988 6.00377 22.7752C9.14291 28.2515 13.4609 32.9602 18.6494 36.5517C23.8448 32.9465 28.1696 28.2173 31.3019 22.7203C34.4342 17.2234 36.2916 11.0891 36.744 4.77655C31.11 2.15147 24.962 0.801225 18.7454 0.828641ZM17.3609 13.0905H13.221V17.2509H9.07437V13.0905H4.91398V8.93694H9.07437V4.78341H13.221V8.93694H17.3677V13.0905H17.3609Z" fill="white"/>
<path d="M99.7529 38.1145C99.8694 37.0864 100.569 36.3256 101.487 36.3256C102.536 36.3256 103.091 37.1481 103.187 38.1145H99.7529ZM99.7529 38.7587H103.975C103.989 38.6354 103.989 38.5531 103.989 38.4777C103.989 36.915 103.084 35.6539 101.508 35.6539C100.034 35.6539 98.951 36.8876 98.951 38.4366C98.951 40.0953 100.144 41.2193 101.61 41.2193C102.618 41.2193 103.269 40.815 103.804 40.2187L103.31 39.7731C102.878 40.2255 102.364 40.5271 101.631 40.5271C100.692 40.5271 99.8694 39.876 99.7529 38.7587ZM97.6213 41.096H98.4164V35.7704H97.6213V41.096ZM97.5733 34.6052H98.4781V33.7279H97.5733V34.6052ZM92.1861 41.096H92.9811V38.0459C92.9811 37.0452 93.6597 36.3736 94.5781 36.3736C95.4966 36.3736 96.0518 36.9904 96.0518 37.9842V41.096H96.84V37.7923C96.84 36.5243 96.086 35.6607 94.7975 35.6607C93.879 35.6607 93.3239 36.1268 92.9743 36.7025V35.7773H92.1792V41.1028L92.1861 41.096ZM88.9647 40.5065C87.8406 40.5065 86.9976 39.5812 86.9976 38.4366V38.416C86.9976 37.292 87.7858 36.3598 88.9441 36.3598C90.1025 36.3598 90.9249 37.2988 90.9249 38.4435V38.464C90.9249 39.5812 90.123 40.5065 88.9716 40.5065H88.9647ZM88.9441 41.2193C90.5548 41.2193 91.7337 39.9445 91.7337 38.4366V38.416C91.7337 36.915 90.5617 35.6539 88.9647 35.6539C87.3677 35.6539 86.182 36.9287 86.182 38.4366V38.4572C86.182 39.9582 87.3472 41.2193 88.9441 41.2193ZM83.55 41.096H84.3451V38.9781C84.3451 37.3674 85.291 36.538 86.4561 36.538H86.5178V35.6813C85.5103 35.6402 84.7358 36.2776 84.3451 37.1618V35.7704H83.55V41.096ZM82.145 41.1851C82.5288 41.1851 82.8235 41.1028 83.1045 40.9589V40.2803C82.8235 40.4174 82.5973 40.4654 82.33 40.4654C81.7954 40.4654 81.4321 40.2255 81.4321 39.5812V36.4695H83.1182V35.7704H81.4321V34.1597H80.6371V35.7704H79.8968V36.4695H80.6371V39.684C80.6371 40.767 81.2882 41.1851 82.1381 41.1851H82.145ZM78.0805 41.1988C79.1429 41.1988 79.9722 40.6093 79.9722 39.6018V39.5812C79.9722 38.6217 79.0881 38.3064 78.2587 38.0596C77.5459 37.8403 76.8879 37.6484 76.8879 37.1412V37.1206C76.8879 36.6751 77.2923 36.3461 77.916 36.3461C78.4301 36.3461 78.999 36.5449 79.4925 36.8602L79.8557 36.2639C79.3074 35.9006 78.5877 35.6744 77.9366 35.6744C76.8879 35.6744 76.1271 36.2845 76.1271 37.196V37.2166C76.1271 38.1967 77.0524 38.4846 77.8886 38.7176C78.5877 38.9164 79.2183 39.122 79.2183 39.6566V39.6772C79.2183 40.1912 78.7522 40.5202 78.1148 40.5202C77.4774 40.5202 76.8468 40.2735 76.2711 39.8417L75.8667 40.4037C76.4698 40.8903 77.3129 41.1851 78.0737 41.1851L78.0805 41.1988ZM70.9866 40.5065C69.8626 40.5065 69.0195 39.5812 69.0195 38.4366V38.416C69.0195 37.292 69.8077 36.3598 70.9661 36.3598C72.1244 36.3598 72.9469 37.2988 72.9469 38.4435V38.464C72.9469 39.5812 72.145 40.5065 70.9935 40.5065H70.9866ZM70.9661 41.2193C72.5768 41.2193 73.7557 39.9445 73.7557 38.4366V38.416C73.7557 36.915 72.5768 35.6539 70.9798 35.6539C69.3828 35.6539 68.1971 36.9287 68.1971 38.4366V38.4572C68.1971 39.9582 69.3622 41.2193 70.9592 41.2193H70.9661ZM63.6323 37.806V34.6326H65.4554C66.6206 34.6326 67.3951 35.1672 67.3951 36.1953V36.2159C67.3951 37.1618 66.6138 37.7992 65.4143 37.7992H63.6323V37.806ZM62.8235 41.096H63.6391V38.5531H65.3869C66.9222 38.5531 68.2176 37.7512 68.2176 36.1953V36.1748C68.2176 34.756 67.1484 33.8855 65.5171 33.8855H62.8235V41.096Z" fill="white"/>
<path d="M137.786 40.1158C137.279 40.1158 136.929 39.8691 136.929 39.4441V39.4236C136.929 38.9301 137.34 38.6628 138.012 38.6628C138.396 38.6628 138.745 38.745 139.013 38.8684V39.1494C139.013 39.7183 138.519 40.1227 137.786 40.1227V40.1158ZM137.313 41.1988C138.074 41.1988 138.601 40.9177 138.985 40.4997V41.096H140.5V37.8951C140.5 37.1549 140.315 36.5449 139.904 36.1337C139.513 35.743 138.896 35.5168 138.039 35.5168C137.1 35.5168 136.504 35.695 135.894 35.9623L136.285 37.1549C136.792 36.9698 137.21 36.8533 137.806 36.8533C138.588 36.8533 138.992 37.2166 138.992 37.8609V37.95C138.601 37.8129 138.204 37.7238 137.642 37.7238C136.333 37.7238 135.414 38.279 135.414 39.4853V39.5058C135.414 40.5956 136.271 41.1919 137.313 41.1919V41.1988ZM133.687 41.096H135.25V35.5785H133.687V41.096ZM133.646 34.9685H135.291V33.5771H133.646V34.9685ZM126.977 41.1371H128.375L129.458 37.7512L130.521 41.1371H131.932L133.653 35.5785H132.097L131.192 38.9369L130.144 35.5579H128.793L127.752 38.9232L126.867 35.5785H125.284L126.984 41.1371H126.977ZM122.858 39.8691C121.994 39.8691 121.405 39.1563 121.405 38.3475V38.3269C121.405 37.5113 121.939 36.8259 122.837 36.8259C123.735 36.8259 124.29 37.5387 124.29 38.3475V38.3681C124.29 39.1837 123.756 39.8759 122.858 39.8759V39.8691ZM122.837 41.2193C124.558 41.2193 125.832 39.9308 125.832 38.3475V38.3269C125.832 36.7437 124.564 35.4757 122.851 35.4757C121.137 35.4757 119.856 36.7642 119.856 38.3475V38.3681C119.856 39.9513 121.124 41.2193 122.83 41.2193H122.837ZM116.956 41.096H118.519V39.0535C118.519 37.7375 119.157 37.1069 120.198 37.1069H120.281V35.4688C119.355 35.4277 118.834 35.9212 118.519 36.682V35.5716H116.956V41.0891V41.096ZM113.653 39.8691C112.919 39.8691 112.303 39.2591 112.303 38.3475V38.3269C112.303 37.4016 112.919 36.8053 113.653 36.8053C114.386 36.8053 114.989 37.4153 114.989 38.3269V38.3475C114.989 39.2659 114.379 39.8691 113.653 39.8691ZM113.255 41.1988C114.071 41.1988 114.592 40.8149 114.976 40.3077V41.1028H116.538V33.584H114.976V36.305C114.606 35.8595 114.091 35.4825 113.255 35.4825C111.946 35.4825 110.74 36.4901 110.74 38.3338V38.3543C110.74 40.1981 111.967 41.2056 113.255 41.2056V41.1988ZM106.134 41.096H110.932V39.828H108.067L110.932 36.6751V35.5716H106.223V36.8396H108.985L106.134 39.9925V41.096Z" fill="white"/>
<path d="M18.6083 36.5312L18.5466 36.4901C8.03256 29.1837 1.45956 17.6964 0.5 4.98218V4.91364L0.561686 4.88622C6.26422 2.15833 12.378 0.78067 18.7317 0.78067C25.0853 0.78067 31.014 2.1172 36.648 4.756L36.7097 4.78341V4.85195C35.7844 17.621 29.2114 29.1494 18.6563 36.4832L18.6014 36.5243L18.6083 36.5312ZM0.719328 5.03701C1.68574 17.6415 8.19705 29.0192 18.6083 36.2844C29.0538 28.9986 35.572 17.573 36.5041 4.92049C30.9112 2.30911 24.9345 0.98629 18.7385 0.98629C12.4397 0.98629 6.37389 2.34338 0.719328 5.03701ZM13.3376 17.3057H9.00583V13.1796H4.87971V8.84784H9.00583V4.72173H13.3376V8.84784H17.4637V13.1796H13.3376V17.3057ZM9.21145 17.1001H13.1319V12.974H17.2581V9.05346H13.1319V4.92735H9.21145V9.05346H5.08533V12.974H9.21145V17.1001Z" fill="white"/>
<path d="M17.3609 8.9438V13.0699H13.2347V17.196H9.10863V13.0699H4.98252V8.9438H9.10863V4.81769H13.2347V8.9438H17.3609Z" fill="black"/>
<path d="M42.0833 11.4798H46.9291L54.6535 29.7526H49.2594L47.9366 26.5106H40.9387L39.6433 29.7526H34.352L42.0764 11.4798H42.0833ZM46.4904 22.6038L44.4685 17.4428L42.4191 22.6038H46.4904Z" fill="white"/>
<path d="M54.9414 19.6703H53.3102V15.8115H54.9414V15.5031C54.9414 13.8992 55.3047 12.7067 56.134 11.8773C56.9908 11.0206 58.1285 10.6573 59.7872 10.6573C61.2882 10.6573 62.2272 10.8149 63.0017 11.048V14.523C62.4328 14.3448 61.864 14.242 61.1648 14.242C60.2601 14.242 59.7666 14.6532 59.7666 15.5648V15.9006H62.9812V19.684H59.842V29.7663H54.9414V19.684V19.6703Z" fill="white"/>
<path d="M68.5192 10.8355H63.598V29.7594H68.5192V10.8355Z" fill="white"/>
<path d="M68.8825 22.8095V22.7615C68.8825 18.7724 72.1518 15.4277 76.6618 15.4277C81.1717 15.4277 84.3862 18.7176 84.3862 22.7135V22.7615C84.3862 26.7505 81.1169 30.0953 76.6069 30.0953C72.1244 30.0953 68.8825 26.8053 68.8825 22.8163V22.8095ZM79.5884 22.8095V22.7615C79.5884 21.048 78.3478 19.6018 76.6069 19.6018C74.866 19.6018 73.6803 21.0274 73.6803 22.7135V22.7615C73.6803 24.475 74.9208 25.9212 76.6618 25.9212C78.4027 25.9212 79.5884 24.4955 79.5884 22.8095Z" fill="white"/>
<path d="M85.9147 19.6703H84.2834V15.8115H85.9147V15.5031C85.9147 13.8992 86.2779 12.7067 87.1073 11.8773C87.964 11.0206 89.1018 10.6573 90.7605 10.6573C92.2615 10.6573 93.2005 10.8149 93.975 11.048V14.523C93.4061 14.3448 92.8372 14.242 92.1313 14.242C91.2265 14.242 90.733 14.6532 90.733 15.5648V15.9006H93.9476V19.684H90.8084V29.7663H85.9078V19.684L85.9147 19.6703Z" fill="white"/>
<path d="M93.3787 25.7361V25.6881C93.3787 22.7889 95.5788 21.281 98.8756 21.281C100.171 21.281 101.439 21.5415 102.248 21.8225V21.5894C102.248 20.1364 101.343 19.3071 99.4513 19.3071C97.9709 19.3071 96.8331 19.5949 95.5925 20.0884L94.5781 16.6134C96.1614 15.9623 97.8475 15.5237 100.253 15.5237C102.659 15.5237 104.475 16.1199 105.593 17.2372C106.655 18.2721 107.094 19.7252 107.094 21.6991V29.7594H102.22V28.3064C101.261 29.3688 99.938 30.0679 98.1011 30.0679C95.428 30.0679 93.3787 28.5394 93.3787 25.743V25.7361ZM102.289 24.6738V24.0226C101.795 23.817 101.096 23.6594 100.37 23.6594C98.9442 23.6594 98.1148 24.3585 98.1148 25.3934V25.4414C98.1148 26.401 98.8413 26.9698 99.8557 26.9698C101.281 26.9698 102.296 26.0651 102.296 24.6669L102.289 24.6738Z" fill="white"/>
<path d="M107.916 15.7293H112.837V18.5531C113.639 16.634 114.935 15.3934 117.272 15.4962V20.6847H116.854C114.29 20.6847 112.837 22.1652 112.837 25.4003V29.7526H107.916V15.7293Z" fill="white"/>
<path d="M117.848 15.7293H122.769V17.6484C123.673 16.4832 124.969 15.4208 126.943 15.4208C128.807 15.4208 130.233 16.2502 130.987 17.7032C132.207 16.305 133.632 15.4208 135.675 15.4208C138.656 15.4208 140.466 17.2851 140.466 20.5545V29.7526H135.545V22.1309C135.545 20.6025 134.791 19.8005 133.625 19.8005C132.46 19.8005 131.604 20.6025 131.604 22.1309V29.7526H126.682V22.1309C126.682 20.6025 125.928 19.8005 124.763 19.8005C123.598 19.8005 122.769 20.6025 122.769 22.1309V29.7526H117.848V15.7293Z" fill="white"/>
</g>
<defs>
<clipPath id="clip0_568_270">
<rect width="140" height="40.4387" fill="white" transform="translate(0.5 0.78067)"/>
</clipPath>
</defs>
</svg>
