<svg width="61" height="42" viewBox="0 0 61 42" fill="none" xmlns="http://www.w3.org/2000/svg">
<g clip-path="url(#clip0_568_234)">
<path fill-rule="evenodd" clip-rule="evenodd" d="M30.8979 9.75026C32.1363 9.39279 32.4512 11.2312 31.4171 11.5291C30.2213 11.8696 29.6382 10.1205 30.8979 9.75026ZM27.77 9.75026C29.0042 9.38003 29.3872 11.2142 28.2892 11.5249C27.0934 11.8611 26.5146 10.1248 27.77 9.75026ZM34.5109 9.72899C35.7408 9.46514 36.0983 11.3376 34.8939 11.5504C33.6343 11.7717 33.3151 9.98432 34.5109 9.72899ZM26.9359 5.2691C24.4379 5.50741 25.0209 8.33314 25.0209 10.3418C25.0209 11.61 24.8932 12.4398 25.6805 13.159C26.4806 13.8952 27.3913 13.7335 28.6595 13.7335C29.9276 13.7335 41.8476 13.8059 42.7626 13.725C45.2904 13.4952 44.6946 10.5929 44.6946 8.66508C44.6946 7.47351 44.7755 6.45216 44.0563 5.81382C43.2903 5.13292 42.2732 5.26058 41.0433 5.26058C39.89 5.26058 27.7275 5.20101 26.9402 5.27335L26.9359 5.2691Z" fill="black"/>
<path fill-rule="evenodd" clip-rule="evenodd" d="M23.6421 10.4567C23.6123 9.32045 23.4931 6.98412 23.9102 6.09469C25.0337 3.69878 26.9615 4.01795 28.9148 4.01795H36.0812C36.1323 -0.0419121 32.6725 0.617709 30.1532 0.617709H20.7695C17.4076 0.617709 14.8883 0.0176663 14.8883 4.08178C14.8883 5.13292 14.7563 7.77141 15.0244 8.60976C15.467 10.0056 16.582 10.3886 17.8927 10.461L18.9013 14.3719C19.0928 13.674 19.7226 10.861 19.9184 10.4652L23.6378 10.4567H23.6421Z" fill="white"/>
<path fill-rule="evenodd" clip-rule="evenodd" d="M26.9359 5.26909C27.7232 5.19675 39.8815 5.25633 41.039 5.25633C42.2689 5.25633 43.286 5.12866 44.052 5.80956C44.767 6.45216 44.6904 7.46925 44.6904 8.66082C44.6904 10.5886 45.2861 13.491 42.7583 13.7208C41.8433 13.8016 29.9361 13.7293 28.6552 13.7293C27.3742 13.7293 26.4806 13.8952 25.6762 13.1548C24.8932 12.4356 25.0166 11.6015 25.0166 10.3375C25.0166 8.32889 24.4379 5.50315 26.9316 5.26484L26.9359 5.26909ZM23.6421 10.4567C23.591 12.3377 23.6931 13.4612 24.8379 14.3846C26.1529 15.4443 27.1572 15.2272 29.1148 15.2272C32.5661 15.2272 36.0217 15.2272 39.4772 15.2272C39.656 15.3507 39.5368 15.1804 39.6347 15.4783L39.9028 16.572C40.0177 17.0444 40.1368 17.504 40.2475 17.9721C40.3794 18.5339 40.7667 20.4021 40.9709 20.7468L42.3242 15.2443C43.503 15.0783 43.869 15.1762 44.7244 14.508C45.2351 14.108 45.7415 13.5378 45.9713 12.6441C46.1543 11.9377 46.1458 7.31179 45.9628 6.63089C45.5457 5.11164 44.2307 4.01369 42.3455 4.01794C40.2603 4.0222 38.1665 3.98815 36.0855 4.01794H28.919C26.9657 4.01794 25.0379 3.69877 23.9144 6.09468C23.4974 6.98411 23.6208 9.32044 23.6463 10.4567H23.6421Z" fill="white"/>
<path fill-rule="evenodd" clip-rule="evenodd" d="M43.4392 26.4621C44.384 26.1216 44.984 26.9047 45.0308 27.7132C45.0861 28.6452 44.8989 29.4921 44.0988 29.7176C42.2604 30.2326 42.0306 26.9685 43.435 26.4621H43.4392ZM45.001 30.2283C45.0095 31.3135 44.767 32.0369 43.8605 32.3136C42.7115 32.6668 42.0774 32.2157 41.2348 31.9178L41.2263 33.4583C43.4477 34.0924 45.6266 33.7988 46.4862 32.071C46.9629 31.105 46.8565 29.973 46.8565 28.8154V25.1343H45.0053V25.7769C44.6478 25.4237 44.4563 25.1386 43.7584 25.0279C39.6517 24.3768 39.6687 32.1433 43.7924 31.0794C44.5159 30.8964 44.601 30.5688 45.001 30.2283Z" fill="white"/>
<path fill-rule="evenodd" clip-rule="evenodd" d="M35.7153 26.0238L35.7025 25.1343H33.8513V31.0156H35.7025C35.7025 30.3262 35.5834 27.4962 35.8515 26.9685C36.0004 26.6791 36.3153 26.4153 36.7324 26.394C37.7239 26.3472 37.7665 27.3132 37.7622 28.1643V31.0156H39.6007C39.6007 29.7347 39.7794 26.8706 39.2943 25.8876C39.0006 25.296 38.3495 24.9428 37.4516 24.9982C36.5026 25.0577 36.1025 25.5216 35.7153 26.0195V26.0238Z" fill="white"/>
<path fill-rule="evenodd" clip-rule="evenodd" d="M48.2736 28.8793C48.2736 29.9645 48.7247 30.8326 49.6396 31.0794C51.2823 31.522 51.8696 30.3858 52.1717 30.1602V31.0199H54.0102V25.1343H52.1717V28.3644C52.1717 29.0325 51.9887 29.4921 51.5036 29.6879C50.8993 29.9262 50.3801 29.6496 50.2056 29.1644C50.0227 28.6665 50.0907 25.8663 50.1035 25.1343H48.2778V28.8793H48.2736Z" fill="white"/>
<path fill-rule="evenodd" clip-rule="evenodd" d="M58.7297 28.2665C58.8318 30.1092 57.3508 29.9815 57.0019 29.6581C56.5721 29.2623 56.7934 28.692 57.2147 28.5005C57.47 28.3814 58.4318 28.2452 58.7297 28.2665ZM55.6954 25.4578L55.6741 26.8281C56.0444 26.7004 58.5467 25.3514 58.7382 27.1345C58.053 27.5175 54.8826 26.9472 55.0996 29.59C55.172 30.4539 55.7337 31.0113 56.555 31.1305C58.0403 31.3475 58.4658 30.4368 58.6999 30.2496L58.7254 30.9943L60.4574 31.0156C60.4574 29.6581 60.6958 26.811 60.0404 25.8663C59.1467 24.5854 57.2402 24.9684 55.6912 25.4535L55.6954 25.4578Z" fill="white"/>
<path fill-rule="evenodd" clip-rule="evenodd" d="M24.6123 31.0199H29.5659V29.5091H26.5146L26.4976 29.2665V22.798H24.6081V31.0199H24.6123Z" fill="white"/>
<path fill-rule="evenodd" clip-rule="evenodd" d="M1.50433 23.6747C3.10018 23.6874 4.55561 23.5555 4.54284 25.3301C4.53858 26.0833 4.18111 26.5727 3.64065 26.8196C3.04061 27.0962 2.18948 27.0238 1.47879 27.0238L1.50858 23.6747H1.50433ZM0.5 22.8746V31.0156H1.47454V27.9047H2.64909C6.38552 27.9047 6.67491 22.7937 2.91294 22.7937L0.5 22.8746Z" fill="white"/>
<path fill-rule="evenodd" clip-rule="evenodd" d="M11.7263 28.6197C11.5476 27.3004 12.0327 26.1557 13.1051 25.8748C14.5308 25.5003 15.3947 26.3983 15.5394 27.5898C15.9734 31.1688 12.054 31.0539 11.7263 28.6197ZM13.1137 25.062C9.50489 25.6408 9.9645 31.7859 14.2201 31.105C15.8543 30.8454 16.7522 29.3602 16.5182 27.4622C16.3096 25.7471 15.0585 24.7471 13.1094 25.062H13.1137Z" fill="white"/>
<path fill-rule="evenodd" clip-rule="evenodd" d="M18.4077 25.1216L17.3991 25.1429V25.9387L18.4077 25.9599V31.0199H19.3652V25.9599L20.7695 25.9514V25.1301H19.3609C19.3609 23.6321 19.2928 22.7214 20.9866 23.1257L20.9951 22.2746C19.9865 22.0873 19.429 22.2363 18.8843 22.8108C18.3268 23.3981 18.4204 24.1939 18.4077 25.1173V25.1216Z" fill="white"/>
<path fill-rule="evenodd" clip-rule="evenodd" d="M30.5021 30.9943L32.2427 31.0241H32.3363V25.1343H30.5021V30.9943Z" fill="white"/>
<path fill-rule="evenodd" clip-rule="evenodd" d="M7.9601 26.2833V25.1343H7.00684V31.0199H7.95584C7.95584 30.0283 7.85796 28.292 8.00691 27.4068C8.16862 26.4493 8.96442 25.4492 10.0666 26.0748L10.0837 25.0918C8.80271 24.8705 8.43672 25.4195 7.95584 26.2791L7.9601 26.2833Z" fill="white"/>
<path fill-rule="evenodd" clip-rule="evenodd" d="M21.7696 30.9986L22.7271 31.0241V25.1343L21.7696 25.1428V30.9986Z" fill="white"/>
<path fill-rule="evenodd" clip-rule="evenodd" d="M31.0851 22.4065C29.7872 22.7937 30.3787 24.5598 31.7958 24.1768C32.2724 24.0449 32.6469 23.53 32.4299 22.9469C32.2639 22.5044 31.7022 22.2235 31.0851 22.4065Z" fill="white"/>
<path fill-rule="evenodd" clip-rule="evenodd" d="M34.5109 9.72898C33.3151 9.98432 33.6343 11.7717 34.8939 11.5504C36.0983 11.3376 35.7408 9.46514 34.5109 9.72898Z" fill="white"/>
<path fill-rule="evenodd" clip-rule="evenodd" d="M27.77 9.75026C26.5146 10.1248 27.0934 11.861 28.2892 11.5249C29.3872 11.2142 29.0084 9.38002 27.77 9.75026Z" fill="white"/>
<path fill-rule="evenodd" clip-rule="evenodd" d="M30.8979 9.75026C29.6382 10.1205 30.2212 11.8696 31.4171 11.5291C32.4512 11.2312 32.1363 9.39279 30.8979 9.75026Z" fill="white"/>
<path fill-rule="evenodd" clip-rule="evenodd" d="M22.0803 22.4703C21.3228 22.6959 21.6036 23.8576 22.4462 23.6364C23.1697 23.4448 22.9186 22.2192 22.0803 22.4703Z" fill="white"/>
<path d="M3.52149 40.029C3.84066 40.2205 4.27473 40.3141 4.6322 40.3141C5.36843 40.3141 5.86208 39.9226 5.86208 39.2545C5.86208 38.5863 5.33438 38.348 4.79817 38.1991C4.35133 38.0714 3.92577 37.9948 3.92577 37.5437C3.92577 37.1735 4.21515 36.9947 4.62795 36.9947C4.94286 36.9947 5.35991 37.1011 5.69611 37.3352V36.833C5.40247 36.6458 4.98542 36.5607 4.63646 36.5607C3.92151 36.5607 3.44489 36.9352 3.44489 37.5778C3.44489 38.2204 3.94705 38.4544 4.46623 38.5991C4.95137 38.7353 5.38119 38.8162 5.38119 39.2843C5.38119 39.6843 5.07053 39.8801 4.6322 39.8801C4.30452 39.8801 3.86194 39.7694 3.51723 39.5098V40.0333L3.52149 40.029ZM8.30906 40.2588V39.846H6.97705V39.8375L8.3431 37.7905V37.782H6.26636V38.1948H7.52603V38.2033L6.15997 40.2503V40.2588H8.30906ZM8.86655 40.2588H9.3219V38.914H9.33041L10.556 40.2588H11.1561L9.88789 38.8842L11.0327 37.7778H10.4496L9.33041 38.8672H9.3219V36.4075H8.86655V40.2588ZM11.1561 39.0162C11.1561 39.7481 11.7221 40.3099 12.4796 40.3099C13.2371 40.3099 13.8031 39.7481 13.8031 39.0162C13.8031 38.2842 13.2371 37.7225 12.4796 37.7225C11.7221 37.7225 11.1561 38.2885 11.1561 39.0162ZM11.6114 39.0162C11.6114 38.5183 11.9774 38.1353 12.4753 38.1353C12.9732 38.1353 13.3392 38.5183 13.3392 39.0162C13.3392 39.5141 12.9732 39.8971 12.4753 39.8971C11.9774 39.8971 11.6114 39.5141 11.6114 39.0162ZM14.4627 40.2588H14.918V38.4714L15.3436 38.1906V37.7522L14.918 38.0331V36.4117H14.4627V38.3395L14.0414 38.6204V39.0587L14.4627 38.7779V40.2631V40.2588ZM16.4458 40.3141C16.782 40.3141 17.0714 40.1737 17.2161 40.0418H17.2246C17.3225 40.2205 17.5097 40.3056 17.7097 40.3056C17.8033 40.3056 17.8927 40.2886 17.9523 40.2631V39.8843C17.9097 39.9056 17.8544 39.9184 17.8033 39.9184C17.6672 39.9184 17.6118 39.8077 17.6118 39.6545V38.5991C17.6118 38.2927 17.5097 38.0799 17.3608 37.9523C17.182 37.7905 16.9182 37.7225 16.6118 37.7225C16.2373 37.7225 15.9692 37.8203 15.7777 37.9352V38.3778C15.9649 38.2416 16.2288 38.131 16.5479 38.131C16.7607 38.131 16.9139 38.1821 17.0118 38.2672C17.1097 38.3608 17.1565 38.4927 17.1565 38.6757V38.88C16.9905 38.8374 16.816 38.8119 16.6203 38.8119C16.3607 38.8119 16.1054 38.8587 15.9181 38.9779C15.7224 39.1013 15.5904 39.3056 15.5904 39.5822C15.5904 39.8247 15.6926 40.012 15.8543 40.1311C16.0202 40.2588 16.2458 40.3056 16.4458 40.3056V40.3141ZM16.5267 39.9098C16.2586 39.9098 16.05 39.7864 16.05 39.5439C16.05 39.2502 16.3564 39.1609 16.6671 39.1609C16.8246 39.1609 17.0161 39.1864 17.1565 39.2289V39.6928C17.0033 39.812 16.7692 39.9098 16.5309 39.9098H16.5267ZM19.4375 40.2077C19.5737 40.2588 19.7482 40.3141 19.9737 40.3141C20.2674 40.3141 20.5355 40.229 20.7099 40.012C20.8376 39.8545 20.9014 39.6332 20.9014 39.1992V36.6075H20.4163V39.2247C20.4163 39.612 20.3567 39.8673 19.9609 39.8673C19.8077 39.8673 19.6205 39.8247 19.4375 39.7524V40.2035V40.2077ZM23.9187 39.1481C23.9272 39.0885 23.9357 38.9949 23.9357 38.9225C23.9357 38.148 23.408 37.7225 22.7952 37.7225C22.1228 37.7225 21.5483 38.2374 21.5483 39.0162C21.5483 39.7949 22.1271 40.3099 22.9016 40.3099C22.9441 40.3099 22.9952 40.3099 23.042 40.3056V40.3141C22.8803 40.4971 22.7782 40.7227 22.7782 40.9184C22.7782 41.2163 22.9952 41.4206 23.3484 41.4206C23.4506 41.4206 23.5442 41.3993 23.625 41.378V41.0759C23.5569 41.0929 23.4931 41.1014 23.4335 41.1014C23.2591 41.1014 23.1697 41.0078 23.1697 40.8461C23.1697 40.6546 23.3101 40.378 23.7995 40.0758V39.5907C23.5697 39.7652 23.2803 39.8971 22.9356 39.8971C22.442 39.8971 22.076 39.629 22.0122 39.1396H23.9272L23.9187 39.1481ZM22.7824 38.131C23.0846 38.131 23.4463 38.297 23.4889 38.7906H22.0122C22.093 38.331 22.4505 38.131 22.7824 38.131ZM26.3231 40.2588V39.846H24.9911V39.8375L26.3529 37.7905V37.782H24.2761V38.1948H25.5358V38.2033L24.174 40.2503V40.2588H26.3188H26.3231ZM27.4551 41.3653L29.1488 37.7778H28.6637L28.2254 38.7183C28.1105 38.9694 27.9956 39.2162 27.8849 39.463H27.8721C27.7743 39.2375 27.6509 38.9694 27.5317 38.7183L27.0934 37.7778H26.5827L27.6253 39.9907L26.9487 41.3653H27.4466H27.4551ZM29.6765 40.2588H30.1361V38.914H30.1447L31.3703 40.2588H31.9703L30.7021 38.8842L31.8469 37.7778H31.2596L30.1404 38.8672H30.1319V36.4075H29.6723V40.2588H29.6765ZM31.9661 39.0162C31.9661 39.7481 32.5278 40.3099 33.2896 40.3099C34.0513 40.3099 34.6088 39.7481 34.6088 39.0162C34.6088 38.2842 34.0471 37.7225 33.2896 37.7225C32.5321 37.7225 31.9661 38.2885 31.9661 39.0162ZM32.4257 39.0162C32.4257 38.5183 32.7916 38.1353 33.2938 38.1353C33.796 38.1353 34.1577 38.5183 34.1577 39.0162C34.1577 39.5141 33.7917 39.8971 33.2938 39.8971C32.7959 39.8971 32.4257 39.5141 32.4257 39.0162ZM33.9024 36.5947H33.3874L32.9959 37.4203H33.3406L33.9024 36.5947ZM35.7238 40.2588H36.1791L36.5706 39.1949C36.66 38.9694 36.7409 38.7183 36.8132 38.497H36.8217C36.8941 38.714 36.9792 38.9694 37.0643 39.1949L37.4558 40.2588H37.9069L38.775 37.7778H38.2984L37.9282 38.8885C37.8388 39.1438 37.758 39.3992 37.6856 39.6503H37.6771C37.5877 39.3992 37.4984 39.1396 37.4005 38.8842L36.9877 37.782H36.6643L36.2515 38.8842C36.1621 39.1311 36.0642 39.3992 35.9748 39.6503H35.9621C35.8812 39.3949 35.8004 39.1396 35.7153 38.8842L35.345 37.782H34.8471L35.7153 40.2631L35.7238 40.2588ZM40.3539 38.4331C40.3539 39.4928 41.1582 40.3099 42.2264 40.3099C43.2945 40.3099 44.0988 39.4885 44.0988 38.4331C44.0988 37.3778 43.2945 36.5522 42.2264 36.5522C41.1582 36.5522 40.3539 37.3735 40.3539 38.4331ZM40.839 38.4331C40.839 37.6331 41.422 36.9947 42.2264 36.9947C43.0307 36.9947 43.6179 37.6288 43.6179 38.4331C43.6179 39.2375 43.0307 39.8673 42.2264 39.8673C41.422 39.8673 40.839 39.2332 40.839 38.4331ZM44.7031 40.2588L45.1457 40.1822C45.333 40.2588 45.5372 40.3141 45.7713 40.3141C46.5416 40.3141 47.099 39.7524 47.099 38.9864C47.099 38.2204 46.5543 37.7225 45.8777 37.7225C45.5755 37.7225 45.3287 37.8246 45.1712 37.9267H45.1585V36.4117H44.7031V40.2631V40.2588ZM45.1627 39.7566V38.3651C45.3287 38.2289 45.5543 38.1353 45.8224 38.1353C46.316 38.1353 46.6352 38.5097 46.6352 39.0119C46.6352 39.5141 46.2947 39.9184 45.7841 39.9184C45.5755 39.9184 45.3202 39.8503 45.1585 39.7566H45.1627ZM49.6652 39.6588C49.4737 39.8035 49.2269 39.9013 48.9417 39.9013C48.4013 39.9013 48.0225 39.5439 48.0225 39.0332C48.0225 38.5225 48.3842 38.1395 48.9247 38.1395C49.1673 38.1395 49.4141 38.2204 49.6226 38.3523V37.8842C49.4439 37.7905 49.2056 37.7267 48.946 37.7267C48.1672 37.7267 47.5587 38.2714 47.5587 39.0374C47.5587 39.8035 48.1204 40.3184 48.9162 40.3184C49.1715 40.3184 49.4524 40.2631 49.6652 40.1482V39.663V39.6588ZM50.9036 41.3653L52.5973 37.7778H52.1164L51.6781 38.7183C51.5589 38.9694 51.4483 39.2162 51.3376 39.463H51.3291C51.227 39.2375 51.1036 38.9694 50.9887 38.7183L50.5504 37.7778H50.0397L51.0823 39.9907L50.4057 41.3653H50.9036ZM54.8528 39.6588C54.6613 39.8035 54.4145 39.9013 54.1293 39.9013C53.5889 39.9013 53.2101 39.5439 53.2101 39.0332C53.2101 38.5225 53.5718 38.1395 54.1123 38.1395C54.3549 38.1395 54.6017 38.2204 54.8102 38.3523V37.8842C54.6315 37.7905 54.3932 37.7267 54.1336 37.7267C53.3548 37.7267 52.7463 38.2714 52.7463 39.0374C52.7463 39.8035 53.308 40.3184 54.1038 40.3184C54.3591 40.3184 54.64 40.2631 54.8528 40.1482V39.663V39.6588ZM55.5124 40.2588H55.9678V38.5608C56.1593 38.331 56.4657 38.148 56.7678 38.148C56.9253 38.148 57.0529 38.1991 57.1508 38.3097C57.2359 38.4076 57.27 38.5353 57.27 38.8119V40.2588H57.7253V38.7268C57.7253 38.3438 57.6572 38.1523 57.5168 37.9948C57.3593 37.8203 57.1253 37.7225 56.8529 37.7225C56.4997 37.7225 56.1976 37.8799 55.9763 38.097H55.9678V36.4117H55.5124V40.2631V40.2588Z" fill="white"/>
</g>
<defs>
<clipPath id="clip0_568_234">
<rect width="60" height="40.8497" fill="white" transform="translate(0.5 0.57515)"/>
</clipPath>
</defs>
</svg>
