<svg width="141" height="36" viewBox="0 0 141 36" fill="none" xmlns="http://www.w3.org/2000/svg">
<g clip-path="url(#clip0_568_284)">
<path d="M133.847 13.2767C135.697 13.2767 137.284 13.9213 138.573 15.2451C139.668 16.3401 140.5 17.9688 140.5 19.5559C140.5 20.2351 139.973 20.8035 139.252 20.8035H135.212C134.533 20.8035 133.964 20.2351 133.964 19.5559C133.964 18.8767 134.533 18.3084 135.212 18.3084H137.665C137.437 17.8579 137.173 17.4005 136.757 17.0262C135.926 16.1946 134.942 15.7787 133.812 15.7787C132.682 15.7787 131.656 16.1946 130.866 17.0262C130.035 17.8579 129.619 18.8421 129.619 19.9718C129.619 21.1015 130.035 22.1272 130.866 22.9173C132.114 24.1649 133.209 24.1302 134.72 24.1302C135.399 24.1302 135.967 24.6985 135.967 25.3777C135.967 25.9045 135.628 26.3965 135.136 26.5906C134.831 26.7015 134.415 26.6668 134.075 26.6668C132.148 26.6322 130.714 26.3272 129.085 24.7401C127.761 23.4163 127.117 21.8708 127.117 20.0134C127.117 18.1559 127.761 16.5757 129.085 15.2866C130.444 13.9282 132.031 13.2837 133.847 13.2837V13.2767Z" fill="white"/>
<path d="M47.8228 15.7718C46.6515 15.7718 45.6673 16.1876 44.8772 17.0193C44.0802 17.851 43.6297 18.8352 43.6297 19.9649C43.6297 21.0946 44.0455 22.1203 44.8772 22.9104C45.7089 23.7421 46.6931 24.1579 47.8228 24.1579C48.9525 24.1579 49.9782 23.7421 50.7683 22.9104C51.6 22.0787 52.0158 21.0946 52.0158 19.9649C52.0158 18.8352 51.6 17.851 50.7683 17.0193C49.9713 16.1876 48.9941 15.7718 47.8228 15.7718ZM47.8228 13.2767C49.6733 13.2767 51.2604 13.9213 52.5495 15.2451C53.8317 16.5688 54.5178 18.1144 54.5178 19.9718C54.5178 21.8292 53.8733 23.4094 52.5495 24.6985C51.2673 26.0223 49.6802 26.6668 47.8228 26.6668C45.9653 26.6668 44.3851 26.0223 43.096 24.6985C41.7723 23.3748 41.1277 21.7876 41.1277 19.9718V9.72822C41.1277 9.04901 41.696 8.4807 42.3752 8.4807C43.0544 8.4807 43.6228 9.04901 43.6228 9.72822V14.753C44.7941 13.7688 46.1941 13.2767 47.8158 13.2767H47.8228Z" fill="white"/>
<path d="M62.6337 15.7718C61.4624 15.7718 60.4782 16.1876 59.6881 17.0193C58.8911 17.851 58.4406 18.8351 58.4406 19.9649C58.4406 21.0946 58.8564 22.1203 59.6881 22.9104C60.5198 23.7421 61.504 24.1579 62.6337 24.1579C63.7634 24.1579 64.7891 23.7421 65.5792 22.9104C66.4109 22.0787 66.8267 21.0946 66.8267 19.9649C66.8267 18.8351 66.4109 17.851 65.5792 17.0193C64.7822 16.1876 63.805 15.7718 62.6337 15.7718ZM62.6337 13.2767C64.4842 13.2767 66.0713 13.9213 67.3604 15.2451C68.6426 16.5688 69.3287 18.1144 69.3287 19.9718C69.3287 21.8292 68.6842 23.4094 67.3604 24.6985C66.0782 26.0223 64.4911 26.6668 62.6337 26.6668C60.7762 26.6668 59.196 26.0223 57.9069 24.6985C56.5832 23.3748 55.9386 21.8292 55.9386 19.9718C55.9386 18.1144 56.5832 16.5342 57.9069 15.2451C59.2307 13.9213 60.8178 13.2767 62.6337 13.2767Z" fill="white"/>
<path d="M74.3881 17.0193C73.5564 17.851 73.1406 18.8351 73.1406 19.9648V25.4054C73.1406 26.0846 72.5723 26.653 71.8931 26.653C71.2139 26.653 70.6455 26.0846 70.6455 25.4054V14.4411C70.6455 13.7619 71.2139 13.1936 71.8931 13.1936C72.5723 13.1936 73.1406 13.7619 73.1406 14.4411V14.7044C74.2356 13.7965 75.4485 13.346 76.8832 13.2282C77.1119 13.1936 77.3337 13.1936 77.5624 13.2629C78.0891 13.4153 78.4703 13.8658 78.4703 14.4757V14.5104C78.4703 15.0371 78.1307 15.5292 77.6386 15.6817C77.3752 15.7579 77.1465 15.7579 76.8832 15.7579C75.899 15.8688 75.0673 16.3262 74.3881 17.0054V17.0193Z" fill="white"/>
<path d="M86.6416 13.2767C88.4921 13.2767 90.0792 13.9213 91.3683 15.2451C92.6505 16.5272 93.295 18.0797 93.3366 19.854C93.3713 21.6282 93.295 23.5965 93.295 25.447C93.295 26.1262 92.7267 26.6946 92.0475 26.6946C91.3683 26.6946 90.8 26.1262 90.8 25.447V19.8886C90.7653 18.7936 90.3495 17.8094 89.5525 17.0193C88.7208 16.1876 87.7366 15.7718 86.6069 15.7718C85.4772 15.7718 84.4515 16.1876 83.6614 17.0193C82.9059 17.7748 82.4554 18.7173 82.3792 19.8193V25.454C82.3792 26.1332 81.8109 26.7015 81.1317 26.7015C80.4525 26.7015 79.8842 26.1332 79.8842 25.454V14.5658C79.8842 13.8866 80.4525 13.3183 81.1317 13.3183C81.8109 13.3183 82.3792 13.8866 82.3792 14.5658V14.8292C83.6267 13.7688 85.0614 13.2767 86.6485 13.2767H86.6416Z" fill="white"/>
<path d="M119.147 15.7718C117.975 15.7718 116.991 16.1876 116.201 17.0193C115.404 17.851 114.953 18.8352 114.953 19.9649C114.953 21.0946 115.369 22.1203 116.201 22.9104C117.033 23.7421 118.017 24.1579 119.147 24.1579C120.276 24.1579 121.302 23.7421 122.092 22.9104C122.924 22.0787 123.34 21.0946 123.34 19.9649C123.34 18.8352 122.924 17.851 122.092 17.0193C121.295 16.1876 120.318 15.7718 119.147 15.7718ZM119.147 13.2767C120.997 13.2767 122.584 13.9213 123.873 15.2451C125.155 16.5688 125.842 18.1144 125.842 19.9718C125.842 21.8292 125.197 23.4094 123.873 24.6985C122.591 26.0223 120.997 26.6668 119.147 26.6668C117.296 26.6668 115.709 26.0223 114.42 24.6985C113.096 23.3748 112.451 21.8292 112.451 19.9718V9.72822C112.451 9.04901 113.02 8.4807 113.699 8.4807C114.378 8.4807 114.947 9.04901 114.947 9.72822V14.753C116.159 13.7688 117.552 13.2767 119.14 13.2767H119.147Z" fill="white"/>
<path d="M107.122 15.1688C107.274 14.753 107.35 14.3371 107.35 13.9213C107.35 12.8262 106.935 11.8421 106.179 10.9757C105.424 10.1094 104.474 9.69357 103.345 9.69357C102.36 9.69357 101.494 10.0332 100.697 10.6777C99.9416 11.3223 99.4495 12.1124 99.2208 13.0965C99.1446 13.3599 99.1099 13.5124 98.9921 13.5886C98.8812 13.6995 98.7634 13.7411 98.6109 13.7411C98.4584 13.7411 98.3059 13.6649 98.195 13.554C98.0842 13.4431 98.0426 13.2906 98.0426 13.1381C98.0426 12.646 98.2713 12.0015 98.7634 11.1352C99.2554 10.3035 99.9 9.62426 100.732 9.13218C101.563 8.6401 102.43 8.48763 103.303 8.48763C104.703 8.48763 105.909 8.9797 106.935 10.1163C107.953 11.253 108.446 12.5005 108.446 13.9351C108.446 14.5035 108.369 15.0718 108.182 15.5639C107.163 19.5351 99.9069 19.7569 99.2624 25.5025H107.877C108.217 25.5025 108.446 25.7658 108.446 26.0708C108.446 26.4104 108.182 26.6391 107.877 26.6391H98.7703C98.396 26.6045 98.0911 26.2233 98.0911 25.9599C98.1257 22.2936 100.773 20.2906 103.192 18.6619C104.627 17.7955 106.553 16.8114 107.122 15.1827V15.1688Z" fill="white"/>
<path fill-rule="evenodd" clip-rule="evenodd" d="M28.9297 0.0391083H0.5V35.9609H28.9297V0.0391083ZM25.2218 23.0975H19.2337C19.4347 23.7837 19.5386 24.5045 19.5386 25.2807C19.5386 27.4084 18.804 29.2381 17.2861 30.7144C15.8168 32.2322 13.9941 32.9738 11.8733 32.9738C9.75247 32.9738 7.93663 32.2322 6.4604 30.7144C4.94257 29.1965 4.20792 27.3668 4.20792 25.2807V13.5054C4.20792 12.7223 4.85941 12.0708 5.63564 12.0708C6.41188 12.0708 7.06337 12.7223 7.06337 13.5054V19.2856C8.40792 18.1559 10.0089 17.5876 11.8663 17.5876C13.9871 17.5876 15.8099 18.3292 17.2792 19.847C17.5149 20.0896 17.7366 20.346 17.9376 20.6025C18.2703 19.7292 18.9703 19.0569 19.899 18.1629C20.1347 17.9342 20.3842 17.6985 20.6406 17.4351C20.7861 17.2896 20.9663 17.1371 21.1604 16.9777C21.8812 16.3678 22.7822 15.6124 22.7822 14.4411C22.7822 13.4985 22.3941 12.3272 21.0356 12.3272C20.1139 12.3272 19.4485 12.4243 18.8178 13.1312C18.6099 13.346 18.3743 13.5124 18.0416 13.5124C17.5218 13.5124 17.0851 13.1589 17.0851 12.5698C17.0851 12.3342 17.1822 12.0569 17.4178 11.8074C18.2356 10.8718 19.3584 10.4421 21.0495 10.4421C23.5861 10.4421 24.8337 12.3134 24.8337 14.4619C24.8337 16.2847 22.9208 18.0936 22.9208 18.0936C22.9208 18.0936 20.6337 20.2351 20.0376 21.1223H25.0762C25.7 21.1223 26.095 21.4827 26.095 22.0648C26.095 22.647 25.8386 23.0975 25.2079 23.0975H25.2218ZM11.8663 20.45C10.5218 20.45 9.39901 20.9282 8.49109 21.8847C7.58317 22.8411 7.06337 23.9708 7.06337 25.2738C7.06337 26.5767 7.54158 27.748 8.49109 28.6629C9.44059 29.6193 10.5703 30.0975 11.8663 30.0975C13.1624 30.0975 14.3337 29.6193 15.2416 28.6629C16.1911 27.7064 16.6693 26.5767 16.6693 25.2738C16.6693 23.9708 16.1911 22.8411 15.2416 21.8847C14.3337 20.9282 13.204 20.45 11.8663 20.45Z" fill="white"/>
</g>
<defs>
<clipPath id="clip0_568_284">
<rect width="140" height="35.9218" fill="white" transform="translate(0.5 0.0391083)"/>
</clipPath>
</defs>
</svg>
