<svg width="155" height="50" viewBox="0 0 155 50" fill="none" xmlns="http://www.w3.org/2000/svg">
<g clip-path="url(#clip0_568_71)">
<mask id="mask0_568_71" style="mask-type:luminance" maskUnits="userSpaceOnUse" x="0" y="0" width="155" height="41">
<path d="M154.118 0.5H0V40.5H154.118V0.5Z" fill="white"/>
</mask>
<g mask="url(#mask0_568_71)">
<path opacity="0.74" d="M19.6929 15.8851L25.025 7.01416L29.9507 14.4491L25.9482 34.8612L19.6929 15.8851Z" fill="white"/>
<path opacity="0.63" d="M6.76855 21.6287L8.76956 15.8848H11.232L12.0516 17.7299L13.5394 27.5777L6.76855 21.6287Z" fill="white"/>
<path d="M0 20.5874L13.5394 27.5784L5.84579 19.167L0 20.5874Z" fill="white"/>
<path d="M8.76953 15.8878L16.05 22.2397L18.7169 30.6068L25.9473 34.863L23.9481 19.888L17.6927 11.064L8.76953 15.8878Z" fill="white"/>
<path d="M25.0264 7.01399L32.7704 20.9366L35.7434 40.5L40.2059 19.1656L35.7416 0.5L25.0264 7.01399Z" fill="white"/>
<path d="M71.7741 12.0957L66.3879 28.2065H63.976L59.5773 15.3429L55.1845 28.2065H52.7212L47.3333 12.0957H49.7032L54.0527 25.1916L58.5889 12.0957H60.7033L65.1484 25.259L69.5886 12.0957H71.7741Z" fill="white"/>
<path d="M84.3238 22.8449H74.4273C74.7029 24.9849 76.43 26.4119 78.8442 26.4119C79.5031 26.4364 80.1594 26.3173 80.7676 26.0628C81.3759 25.8083 81.9214 25.4244 82.3665 24.9379L83.5894 26.3646C82.4822 27.6532 80.8023 28.3446 78.7785 28.3446C74.8391 28.3446 72.2168 25.7428 72.2168 22.1084C72.2168 18.4941 74.819 15.895 78.3382 15.895C81.8574 15.895 84.368 18.4275 84.368 22.1781C84.3654 22.401 84.3506 22.6236 84.3238 22.8449ZM74.4273 21.2557H82.2554C82.1474 20.2932 81.6885 19.4043 80.9664 18.7588C80.2444 18.1132 79.3098 17.7564 78.3413 17.7564C77.3727 17.7564 76.4382 18.1132 75.7162 18.7588C74.9942 19.4043 74.5353 20.2932 74.4273 21.2557Z" fill="white"/>
<path d="M100.061 22.1073C100.061 25.8359 97.4593 28.343 93.8972 28.343C93.0584 28.3788 92.2235 28.2087 91.4655 27.8476C90.7075 27.4865 90.0494 26.9454 89.5487 26.2714V28.2063H87.4297V11.1299H89.6374V17.8507C90.1447 17.2137 90.7946 16.7049 91.5346 16.3651C92.2746 16.0252 93.0839 15.864 93.8976 15.8944C97.466 15.8944 100.061 18.3795 100.061 22.1073ZM97.8344 22.1073C97.8344 19.506 96.0559 17.8257 93.7097 17.8257C91.3871 17.8257 89.6126 19.506 89.6126 22.1073C89.6126 24.7086 91.3853 26.4099 93.7097 26.4099C96.0546 26.4121 97.8366 24.7081 97.8366 22.1073H97.8344Z" fill="white"/>
<path d="M118.56 12.0957L111.577 28.2065H107.9L100.953 12.0957H104.978L109.876 23.6019L114.853 12.0957H118.56Z" fill="white"/>
<path d="M119.894 12.0957H123.626V28.2065H119.894V12.0957Z" fill="white"/>
<path d="M126.178 26.6186L127.437 23.8104C129.001 24.8897 130.852 25.4751 132.752 25.4908C134.966 25.4908 135.86 24.7547 135.86 23.7636C135.86 20.7495 126.498 22.8198 126.498 16.8369C126.498 14.098 128.707 11.8192 133.287 11.8192C135.245 11.779 137.176 12.2731 138.874 13.2485L137.73 16.0793C136.376 15.2789 134.839 14.8424 133.266 14.8122C131.052 14.8122 130.2 15.6412 130.2 16.6533C130.2 19.6209 139.57 17.5738 139.57 23.4871C139.57 26.1795 137.337 28.4816 132.733 28.4816C130.181 28.4829 127.599 27.7236 126.178 26.6186Z" fill="white"/>
<path d="M145.237 15.1356H140.078V12.0957H154.118V15.1329H148.967V28.2065H145.232V15.1356H145.237Z" fill="white"/>
</g>
<path d="M49.1328 44.7324C49.5234 44.9668 49.9531 45.1393 50.4219 45.25C50.8906 45.3607 51.3708 45.416 51.8623 45.416C52.1943 45.416 52.471 45.3932 52.6924 45.3477C52.9137 45.3021 53.0911 45.2435 53.2246 45.1719C53.3581 45.1003 53.4525 45.0189 53.5078 44.9277C53.5632 44.8366 53.5908 44.7438 53.5908 44.6494C53.5908 44.5127 53.5306 44.3955 53.4102 44.2979C53.293 44.2002 53.0977 44.1514 52.8242 44.1514C52.6973 44.1514 52.5605 44.1595 52.4141 44.1758C52.2676 44.1921 52.113 44.21 51.9502 44.2295C51.7907 44.2458 51.623 44.262 51.4473 44.2783C51.2747 44.2946 51.099 44.3027 50.9199 44.3027C50.5293 44.3027 50.1956 44.2604 49.9189 44.1758C49.6455 44.0911 49.4225 43.9756 49.25 43.8291C49.0775 43.6826 48.9521 43.5101 48.874 43.3115C48.7959 43.1097 48.7568 42.8932 48.7568 42.6621C48.7568 42.3691 48.8252 42.099 48.9619 41.8516C49.0986 41.6042 49.2939 41.391 49.5479 41.2119C49.8018 41.0296 50.1077 40.888 50.4658 40.7871C50.8271 40.6862 51.2292 40.6357 51.6719 40.6357C51.903 40.6357 52.1439 40.6504 52.3945 40.6797C52.6484 40.7057 52.8975 40.7415 53.1416 40.7871C53.3857 40.8327 53.6201 40.8864 53.8447 40.9482C54.0693 41.0068 54.2679 41.0703 54.4404 41.1387L53.9863 42.2617C53.6185 42.125 53.2507 42.0176 52.8828 41.9395C52.5182 41.8581 52.1423 41.8174 51.7549 41.8174C51.4847 41.8174 51.2552 41.8385 51.0664 41.8809C50.8809 41.9199 50.7295 41.9736 50.6123 42.042C50.4951 42.1071 50.4089 42.1836 50.3535 42.2715C50.3014 42.3561 50.2754 42.4456 50.2754 42.54C50.2754 42.6084 50.2884 42.6702 50.3145 42.7256C50.3438 42.7809 50.3893 42.8298 50.4512 42.8721C50.5163 42.9111 50.5993 42.9421 50.7002 42.9648C50.8044 42.9844 50.9313 42.9941 51.0811 42.9941C51.2178 42.9941 51.3626 42.986 51.5156 42.9697C51.6686 42.9535 51.8281 42.9372 51.9941 42.9209C52.1602 42.9014 52.3311 42.8835 52.5068 42.8672C52.6859 42.8509 52.8682 42.8428 53.0537 42.8428C53.3988 42.8428 53.6999 42.8835 53.957 42.9648C54.2174 43.0462 54.4323 43.1602 54.6016 43.3066C54.7708 43.4531 54.8978 43.6257 54.9824 43.8242C55.0671 44.0228 55.1094 44.2393 55.1094 44.4736C55.1094 44.7764 55.0394 45.0579 54.8994 45.3184C54.7594 45.5788 54.5511 45.805 54.2744 45.9971C53.9977 46.1859 53.6527 46.334 53.2393 46.4414C52.8291 46.5488 52.3538 46.6025 51.8135 46.6025C51.4814 46.6025 51.1608 46.5814 50.8516 46.5391C50.5423 46.5 50.2477 46.4463 49.9678 46.3779C49.6878 46.3063 49.4242 46.2233 49.1768 46.1289C48.9326 46.0345 48.7096 45.9336 48.5078 45.8262L49.1328 44.7324ZM56.0664 43.6191C56.0664 43.2057 56.1494 42.8184 56.3154 42.457C56.4847 42.0957 56.724 41.7799 57.0332 41.5098C57.3457 41.2396 57.7217 41.0264 58.1611 40.8701C58.6038 40.7139 59.1003 40.6357 59.6504 40.6357C60.2005 40.6357 60.6953 40.7139 61.1348 40.8701C61.5775 41.0264 61.9535 41.2396 62.2627 41.5098C62.5752 41.7799 62.8145 42.0957 62.9805 42.457C63.1497 42.8184 63.2344 43.2057 63.2344 43.6191C63.2344 44.0326 63.1497 44.4199 62.9805 44.7812C62.8145 45.1426 62.5752 45.4583 62.2627 45.7285C61.9535 45.9987 61.5775 46.2119 61.1348 46.3682C60.6953 46.5244 60.2005 46.6025 59.6504 46.6025C59.1003 46.6025 58.6038 46.5244 58.1611 46.3682C57.7217 46.2119 57.3457 45.9987 57.0332 45.7285C56.724 45.4583 56.4847 45.1426 56.3154 44.7812C56.1494 44.4199 56.0664 44.0326 56.0664 43.6191ZM57.585 43.6191C57.585 43.8503 57.6305 44.07 57.7217 44.2783C57.8161 44.4834 57.9512 44.6657 58.127 44.8252C58.306 44.9814 58.5225 45.1068 58.7764 45.2012C59.0335 45.2923 59.3249 45.3379 59.6504 45.3379C59.9759 45.3379 60.2656 45.2923 60.5195 45.2012C60.7767 45.1068 60.9932 44.9814 61.1689 44.8252C61.348 44.6657 61.4831 44.4834 61.5742 44.2783C61.6686 44.07 61.7158 43.8503 61.7158 43.6191C61.7158 43.388 61.6686 43.1683 61.5742 42.96C61.4831 42.7516 61.348 42.5693 61.1689 42.4131C60.9932 42.2536 60.7767 42.1283 60.5195 42.0371C60.2656 41.9427 59.9759 41.8955 59.6504 41.8955C59.3249 41.8955 59.0335 41.9427 58.7764 42.0371C58.5225 42.1283 58.306 42.2536 58.127 42.4131C57.9512 42.5693 57.8161 42.7516 57.7217 42.96C57.6305 43.1683 57.585 43.388 57.585 43.6191ZM65.3242 41.8223H64.3379V40.7383H65.3242C65.3242 40.3477 65.3796 40.001 65.4902 39.6982C65.6009 39.3923 65.7604 39.1351 65.9688 38.9268C66.1803 38.7152 66.4359 38.554 66.7354 38.4434C67.0381 38.3327 67.3783 38.2773 67.7559 38.2773C68.0195 38.2773 68.2783 38.3034 68.5322 38.3555C68.7861 38.4043 69.0107 38.4759 69.2061 38.5703L68.6934 39.7861C68.6152 39.7406 68.5046 39.6982 68.3613 39.6592C68.2214 39.6201 68.0667 39.6006 67.8975 39.6006C67.5654 39.6006 67.2969 39.695 67.0918 39.8838C66.89 40.0693 66.7826 40.3542 66.7695 40.7383H68.5908V41.8223H66.7695V46.5H65.3242V41.8223ZM70.5732 41.8223H69.1816V40.7383H70.5732V38.9463H72.0186V40.7383H73.4102V41.8223H72.0186V46.5H70.5732V41.8223ZM73.8984 40.7334H75.5732L77.0723 44.2002L77.5117 45.1719L78.0488 43.9121L76.623 40.7334H78.0293L78.7275 42.4424L79.4258 40.7334H80.832L79.4014 43.9121L79.9434 45.1719L80.3828 44.2002L81.8818 40.7334H83.5566L80.8271 46.5H79.2549L78.7275 45.3867L78.2002 46.5H76.6279L73.8984 40.7334ZM84.2939 44.6836C84.2939 44.4069 84.3542 44.1546 84.4746 43.9268C84.5951 43.6989 84.7757 43.5036 85.0166 43.3408C85.2575 43.1748 85.557 43.0479 85.915 42.96C86.2764 42.8688 86.6963 42.8232 87.1748 42.8232C87.5296 42.8232 87.9023 42.8493 88.293 42.9014C88.6868 42.9535 89.0921 43.0332 89.5088 43.1406C89.4925 42.9583 89.4372 42.7907 89.3428 42.6377C89.2484 42.4814 89.1165 42.348 88.9473 42.2373C88.7812 42.1234 88.5794 42.0355 88.3418 41.9736C88.1074 41.9118 87.8405 41.8809 87.541 41.8809C87.3783 41.8809 87.1992 41.8906 87.0039 41.9102C86.8086 41.9297 86.6068 41.959 86.3984 41.998C86.1901 42.0371 85.9834 42.0859 85.7783 42.1445C85.5765 42.2031 85.3877 42.2731 85.2119 42.3545L84.7725 41.168C84.9906 41.0898 85.2233 41.0182 85.4707 40.9531C85.7214 40.888 85.9769 40.8327 86.2373 40.7871C86.4977 40.7383 86.7581 40.7008 87.0186 40.6748C87.279 40.6488 87.5312 40.6357 87.7754 40.6357C88.8529 40.6357 89.6536 40.9108 90.1777 41.4609C90.7018 42.0111 90.9639 42.8542 90.9639 43.9902V46.5H89.5186V45.958C89.3688 46.0459 89.2044 46.1289 89.0254 46.207C88.8496 46.2852 88.6576 46.3535 88.4492 46.4121C88.2409 46.4707 88.0163 46.5163 87.7754 46.5488C87.5378 46.5846 87.2855 46.6025 87.0186 46.6025C86.5693 46.6025 86.1738 46.5537 85.832 46.4561C85.4935 46.3584 85.2103 46.2233 84.9824 46.0508C84.7546 45.8783 84.582 45.6764 84.4648 45.4453C84.3509 45.2109 84.2939 44.957 84.2939 44.6836ZM85.8174 44.6348C85.8174 44.7292 85.8418 44.8203 85.8906 44.9082C85.9395 44.9928 86.0176 45.0693 86.125 45.1377C86.2324 45.2028 86.3691 45.2565 86.5352 45.2988C86.7044 45.3379 86.9079 45.3574 87.1455 45.3574C87.3994 45.3574 87.6452 45.3346 87.8828 45.2891C88.1204 45.2435 88.3418 45.1833 88.5469 45.1084C88.752 45.0335 88.9375 44.9473 89.1035 44.8496C89.2695 44.752 89.4079 44.651 89.5186 44.5469V44.293C89.2972 44.2311 89.0775 44.179 88.8594 44.1367C88.6445 44.0944 88.4378 44.0618 88.2393 44.0391C88.0439 44.013 87.8584 43.9951 87.6826 43.9854C87.5101 43.9756 87.3587 43.9707 87.2285 43.9707C86.9583 43.9707 86.7337 43.9886 86.5547 44.0244C86.3757 44.0602 86.2308 44.109 86.1201 44.1709C86.0094 44.2295 85.9313 44.2995 85.8857 44.3809C85.8402 44.4622 85.8174 44.5469 85.8174 44.6348ZM92.8779 40.7383H94.3232V41.5684C94.6423 41.3307 94.9792 41.1257 95.334 40.9531C95.6888 40.7806 96.042 40.6488 96.3936 40.5576L96.8184 41.8809C96.2617 41.9362 95.7718 42.0615 95.3486 42.2568C94.9287 42.4489 94.5869 42.7207 94.3232 43.0723V46.5H92.8779V40.7383ZM97.624 43.5996C97.624 43.209 97.7038 42.8363 97.8633 42.4814C98.0228 42.1234 98.2523 41.8076 98.5518 41.5342C98.8512 41.2607 99.2174 41.0426 99.6504 40.8799C100.087 40.7171 100.581 40.6357 101.135 40.6357C101.685 40.6357 102.18 40.7188 102.619 40.8848C103.062 41.0475 103.436 41.2721 103.742 41.5586C104.051 41.8451 104.287 42.182 104.45 42.5693C104.616 42.9567 104.699 43.3717 104.699 43.8145C104.699 43.8698 104.698 43.93 104.694 43.9951C104.694 44.057 104.691 44.1139 104.685 44.166H99.2354C99.2972 44.3385 99.3965 44.4964 99.5332 44.6396C99.6732 44.7829 99.8473 44.9066 100.056 45.0107C100.264 45.1149 100.505 45.1963 100.778 45.2549C101.052 45.3102 101.354 45.3379 101.687 45.3379C102.019 45.3379 102.349 45.3037 102.678 45.2354C103.007 45.1637 103.321 45.0742 103.62 44.9668L104.108 46.0703C103.92 46.1582 103.728 46.2363 103.532 46.3047C103.34 46.3698 103.138 46.4251 102.927 46.4707C102.718 46.513 102.499 46.5456 102.268 46.5684C102.04 46.5911 101.799 46.6025 101.545 46.6025C100.897 46.6025 100.329 46.5244 99.8408 46.3682C99.3525 46.2119 98.944 45.9987 98.6152 45.7285C98.2865 45.4583 98.0391 45.141 97.873 44.7764C97.707 44.4118 97.624 44.0195 97.624 43.5996ZM103.166 43.0381C103.114 42.8786 103.033 42.7305 102.922 42.5938C102.814 42.4538 102.679 42.3333 102.517 42.2324C102.354 42.1283 102.165 42.0469 101.95 41.9883C101.735 41.9297 101.499 41.9004 101.242 41.9004C100.969 41.9004 100.72 41.9313 100.495 41.9932C100.271 42.055 100.074 42.138 99.9043 42.2422C99.735 42.3464 99.5934 42.4668 99.4795 42.6035C99.3688 42.7402 99.2874 42.8851 99.2354 43.0381H103.166ZM109.577 38.4043H111.022V41.1777C111.325 41.0117 111.662 40.8799 112.033 40.7822C112.408 40.6846 112.8 40.6357 113.21 40.6357C113.685 40.6357 114.112 40.7057 114.489 40.8457C114.87 40.9857 115.192 41.1875 115.456 41.4512C115.72 41.7116 115.922 42.029 116.062 42.4033C116.205 42.7777 116.276 43.1992 116.276 43.668V46.5H114.836V43.7266C114.836 43.4531 114.792 43.2041 114.704 42.9795C114.616 42.7516 114.488 42.5563 114.318 42.3936C114.149 42.2308 113.942 42.1055 113.698 42.0176C113.457 41.9264 113.184 41.8809 112.878 41.8809C112.51 41.8809 112.168 41.9395 111.853 42.0566C111.537 42.1738 111.26 42.3219 111.022 42.501V46.5H109.577V38.4043ZM117.551 43.6191C117.551 43.2057 117.634 42.8184 117.8 42.457C117.969 42.0957 118.208 41.7799 118.518 41.5098C118.83 41.2396 119.206 41.0264 119.646 40.8701C120.088 40.7139 120.585 40.6357 121.135 40.6357C121.685 40.6357 122.18 40.7139 122.619 40.8701C123.062 41.0264 123.438 41.2396 123.747 41.5098C124.06 41.7799 124.299 42.0957 124.465 42.457C124.634 42.8184 124.719 43.2057 124.719 43.6191C124.719 44.0326 124.634 44.4199 124.465 44.7812C124.299 45.1426 124.06 45.4583 123.747 45.7285C123.438 45.9987 123.062 46.2119 122.619 46.3682C122.18 46.5244 121.685 46.6025 121.135 46.6025C120.585 46.6025 120.088 46.5244 119.646 46.3682C119.206 46.2119 118.83 45.9987 118.518 45.7285C118.208 45.4583 117.969 45.1426 117.8 44.7812C117.634 44.4199 117.551 44.0326 117.551 43.6191ZM119.069 43.6191C119.069 43.8503 119.115 44.07 119.206 44.2783C119.3 44.4834 119.436 44.6657 119.611 44.8252C119.79 44.9814 120.007 45.1068 120.261 45.2012C120.518 45.2923 120.809 45.3379 121.135 45.3379C121.46 45.3379 121.75 45.2923 122.004 45.2012C122.261 45.1068 122.478 44.9814 122.653 44.8252C122.832 44.6657 122.967 44.4834 123.059 44.2783C123.153 44.07 123.2 43.8503 123.2 43.6191C123.2 43.388 123.153 43.1683 123.059 42.96C122.967 42.7516 122.832 42.5693 122.653 42.4131C122.478 42.2536 122.261 42.1283 122.004 42.0371C121.75 41.9427 121.46 41.8955 121.135 41.8955C120.809 41.8955 120.518 41.9427 120.261 42.0371C120.007 42.1283 119.79 42.2536 119.611 42.4131C119.436 42.5693 119.3 42.7516 119.206 42.96C119.115 43.1683 119.069 43.388 119.069 43.6191ZM126.179 40.7334H127.619V43.5459C127.619 43.8128 127.648 44.057 127.707 44.2783C127.766 44.4964 127.865 44.6836 128.005 44.8398C128.148 44.9961 128.337 45.1182 128.571 45.2061C128.809 45.2907 129.104 45.333 129.455 45.333C129.621 45.333 129.789 45.3151 129.958 45.2793C130.131 45.2435 130.295 45.1947 130.451 45.1328C130.607 45.0677 130.752 44.9912 130.886 44.9033C131.022 44.8154 131.14 44.7194 131.237 44.6152V40.7334H132.683V46.5H131.237V46.0068C130.882 46.2184 130.526 46.3698 130.168 46.4609C129.81 46.5521 129.47 46.5977 129.147 46.5977C128.62 46.5977 128.168 46.5342 127.79 46.4072C127.416 46.2803 127.108 46.0964 126.867 45.8555C126.63 45.6113 126.455 45.3135 126.345 44.9619C126.234 44.6071 126.179 44.2035 126.179 43.751V40.7334ZM134.748 44.7324C135.139 44.9668 135.568 45.1393 136.037 45.25C136.506 45.3607 136.986 45.416 137.478 45.416C137.81 45.416 138.086 45.3932 138.308 45.3477C138.529 45.3021 138.706 45.2435 138.84 45.1719C138.973 45.1003 139.068 45.0189 139.123 44.9277C139.178 44.8366 139.206 44.7438 139.206 44.6494C139.206 44.5127 139.146 44.3955 139.025 44.2979C138.908 44.2002 138.713 44.1514 138.439 44.1514C138.312 44.1514 138.176 44.1595 138.029 44.1758C137.883 44.1921 137.728 44.21 137.565 44.2295C137.406 44.2458 137.238 44.262 137.062 44.2783C136.89 44.2946 136.714 44.3027 136.535 44.3027C136.145 44.3027 135.811 44.2604 135.534 44.1758C135.261 44.0911 135.038 43.9756 134.865 43.8291C134.693 43.6826 134.567 43.5101 134.489 43.3115C134.411 43.1097 134.372 42.8932 134.372 42.6621C134.372 42.3691 134.44 42.099 134.577 41.8516C134.714 41.6042 134.909 41.391 135.163 41.2119C135.417 41.0296 135.723 40.888 136.081 40.7871C136.442 40.6862 136.844 40.6357 137.287 40.6357C137.518 40.6357 137.759 40.6504 138.01 40.6797C138.264 40.7057 138.513 40.7415 138.757 40.7871C139.001 40.8327 139.235 40.8864 139.46 40.9482C139.685 41.0068 139.883 41.0703 140.056 41.1387L139.602 42.2617C139.234 42.125 138.866 42.0176 138.498 41.9395C138.133 41.8581 137.757 41.8174 137.37 41.8174C137.1 41.8174 136.87 41.8385 136.682 41.8809C136.496 41.9199 136.345 41.9736 136.228 42.042C136.11 42.1071 136.024 42.1836 135.969 42.2715C135.917 42.3561 135.891 42.4456 135.891 42.54C135.891 42.6084 135.904 42.6702 135.93 42.7256C135.959 42.7809 136.005 42.8298 136.066 42.8721C136.132 42.9111 136.215 42.9421 136.315 42.9648C136.42 42.9844 136.547 42.9941 136.696 42.9941C136.833 42.9941 136.978 42.986 137.131 42.9697C137.284 42.9535 137.443 42.9372 137.609 42.9209C137.775 42.9014 137.946 42.8835 138.122 42.8672C138.301 42.8509 138.483 42.8428 138.669 42.8428C139.014 42.8428 139.315 42.8835 139.572 42.9648C139.833 43.0462 140.048 43.1602 140.217 43.3066C140.386 43.4531 140.513 43.6257 140.598 43.8242C140.682 44.0228 140.725 44.2393 140.725 44.4736C140.725 44.7764 140.655 45.0579 140.515 45.3184C140.375 45.5788 140.166 45.805 139.89 45.9971C139.613 46.1859 139.268 46.334 138.854 46.4414C138.444 46.5488 137.969 46.6025 137.429 46.6025C137.097 46.6025 136.776 46.5814 136.467 46.5391C136.158 46.5 135.863 46.4463 135.583 46.3779C135.303 46.3063 135.039 46.2233 134.792 46.1289C134.548 46.0345 134.325 45.9336 134.123 45.8262L134.748 44.7324ZM141.755 43.5996C141.755 43.209 141.835 42.8363 141.994 42.4814C142.154 42.1234 142.383 41.8076 142.683 41.5342C142.982 41.2607 143.348 41.0426 143.781 40.8799C144.217 40.7171 144.712 40.6357 145.266 40.6357C145.816 40.6357 146.311 40.7188 146.75 40.8848C147.193 41.0475 147.567 41.2721 147.873 41.5586C148.182 41.8451 148.418 42.182 148.581 42.5693C148.747 42.9567 148.83 43.3717 148.83 43.8145C148.83 43.8698 148.828 43.93 148.825 43.9951C148.825 44.057 148.822 44.1139 148.815 44.166H143.366C143.428 44.3385 143.527 44.4964 143.664 44.6396C143.804 44.7829 143.978 44.9066 144.187 45.0107C144.395 45.1149 144.636 45.1963 144.909 45.2549C145.183 45.3102 145.485 45.3379 145.817 45.3379C146.149 45.3379 146.48 45.3037 146.809 45.2354C147.137 45.1637 147.451 45.0742 147.751 44.9668L148.239 46.0703C148.05 46.1582 147.858 46.2363 147.663 46.3047C147.471 46.3698 147.269 46.4251 147.058 46.4707C146.849 46.513 146.63 46.5456 146.398 46.5684C146.171 46.5911 145.93 46.6025 145.676 46.6025C145.028 46.6025 144.46 46.5244 143.972 46.3682C143.483 46.2119 143.075 45.9987 142.746 45.7285C142.417 45.4583 142.17 45.141 142.004 44.7764C141.838 44.4118 141.755 44.0195 141.755 43.5996ZM147.297 43.0381C147.245 42.8786 147.163 42.7305 147.053 42.5938C146.945 42.4538 146.81 42.3333 146.647 42.2324C146.485 42.1283 146.296 42.0469 146.081 41.9883C145.866 41.9297 145.63 41.9004 145.373 41.9004C145.1 41.9004 144.851 41.9313 144.626 41.9932C144.401 42.055 144.204 42.138 144.035 42.2422C143.866 42.3464 143.724 42.4668 143.61 42.6035C143.5 42.7402 143.418 42.8851 143.366 43.0381H147.297Z" fill="#5B00DB"/>
</g>
<defs>
<clipPath id="clip0_568_71">
<rect width="155" height="49" fill="white" transform="translate(0 0.5)"/>
</clipPath>
</defs>
</svg>
