<svg width="460" height="460" viewBox="0 0 460 460" fill="none" xmlns="http://www.w3.org/2000/svg">
<path d="M225.262 268.738C207.315 268.738 191.34 259.814 185.8 245.022C182.725 236.801 183.257 227.568 187.305 219.039C192.628 207.821 203.333 198.799 216.68 194.278C241.04 186.024 266.852 195.316 274.212 214.984C277.288 223.205 276.756 232.438 272.708 240.968C267.385 252.185 256.68 261.208 243.333 265.729C237.301 267.772 231.17 268.738 225.262 268.738ZM188.258 244.096C195.132 262.45 219.446 271.038 242.486 263.232C255.162 258.94 265.308 250.411 270.329 239.837C274.12 231.84 274.613 223.566 271.748 215.904C264.874 197.55 240.547 188.961 217.521 196.768C204.844 201.059 194.698 209.589 189.678 220.162C185.886 228.16 185.393 236.433 188.258 244.096Z" fill="#5B00DB"/>
<path d="M228.561 274.121C217.869 274.121 207.466 270.841 199.154 264.71C189.934 257.902 183.96 248.163 182.344 237.275C178.776 213.282 197.248 190.493 223.52 186.484C236.887 184.447 250.483 187.654 260.84 195.296C270.059 202.104 276.033 211.843 277.649 222.732C281.218 246.724 262.745 269.514 236.473 273.523C233.838 273.923 231.189 274.121 228.561 274.121ZM184.946 236.887C186.464 247.073 192.063 256.207 200.718 262.594C210.516 269.823 223.409 272.859 236.078 270.92C260.925 267.122 278.405 245.679 275.054 223.113C273.536 212.927 267.937 203.793 259.282 197.406C249.484 190.177 236.598 187.141 223.921 189.08C199.075 192.878 181.595 214.321 184.946 236.887Z" fill="#5B00DB"/>
<path d="M230.237 280.948C229.487 280.948 228.738 280.929 227.989 280.896C200.639 279.647 179.282 255.806 180.386 227.746C180.931 213.907 186.76 201.204 196.801 191.978C206.487 183.08 218.993 178.506 232.011 179.104C259.361 180.353 280.718 204.194 279.614 232.254C279.069 246.093 273.24 258.796 263.199 268.022C254.071 276.407 242.44 280.948 230.243 280.948H230.237ZM229.77 181.68C218.224 181.68 207.223 185.978 198.582 193.916C189.06 202.663 183.527 214.715 183.014 227.851C181.969 254.472 202.196 277.091 228.107 278.274C240.429 278.839 252.251 274.508 261.418 266.09C270.94 257.344 276.473 245.292 276.986 232.155C278.031 205.535 257.804 182.916 231.893 181.733C231.183 181.7 230.473 181.687 229.77 181.687V181.68Z" fill="#5B00DB"/>
<path d="M229.704 289.018C225.761 289.018 221.812 288.492 217.922 287.434C190.552 279.962 173.663 248.137 180.267 216.502C183.724 199.955 193.193 185.886 206.251 177.895C217.258 171.159 229.98 169.267 242.078 172.572C269.448 180.044 286.343 211.863 279.733 243.504C276.276 260.051 266.807 274.12 253.749 282.111C246.277 286.685 238.017 289.024 229.704 289.024V289.018ZM230.302 173.61C222.463 173.61 214.669 175.818 207.624 180.136C195.185 187.752 186.149 201.197 182.843 217.041C176.515 247.342 192.563 277.781 218.625 284.898C230.013 288.006 241.999 286.218 252.382 279.864C264.822 272.248 273.858 258.802 277.163 242.959C283.491 212.658 267.444 182.219 241.382 175.102C237.728 174.103 234.009 173.61 230.302 173.61Z" fill="#5B00DB"/>
<path d="M226.885 298.027C219.821 298.027 212.855 296.227 206.441 292.652C180.3 278.096 169.49 238.188 182.344 203.695C189.428 184.683 202.485 170.469 218.178 164.687C230.053 160.31 242.617 161.256 253.559 167.348C279.7 181.904 290.51 221.812 277.656 256.305C270.572 275.317 257.515 289.531 241.822 295.313C236.907 297.127 231.873 298.021 226.885 298.021V298.027ZM184.808 204.608C172.388 237.938 182.666 276.401 207.723 290.352C218.132 296.148 229.606 297.009 240.915 292.843C255.885 287.329 268.377 273.674 275.192 255.385C287.612 222.055 277.334 183.593 252.277 169.641C241.868 163.845 230.388 162.985 219.085 167.151C204.115 172.664 191.623 186.32 184.808 204.608Z" fill="#5B00DB"/>
<path d="M221.582 307.655C211.35 307.655 201.848 303.712 193.804 296.069C170.298 273.739 167.223 225.965 186.95 189.566C198.096 168.997 214.472 155.625 231.886 152.865C244.608 150.847 256.463 154.678 266.195 163.924C289.701 186.254 292.777 234.028 273.049 270.427C261.904 290.996 245.528 304.369 228.114 307.129C225.906 307.477 223.724 307.655 221.582 307.655ZM189.257 190.821C170.062 226.241 172.914 272.603 195.612 294.163C204.733 302.831 215.819 306.419 227.7 304.533C244.299 301.905 259.985 289.018 270.736 269.172C289.931 233.752 287.079 187.391 264.382 165.83C255.26 157.162 244.161 153.574 232.293 155.46C215.694 158.089 200.008 170.975 189.257 190.821Z" fill="#5B00DB"/>
<path d="M214.498 317.439C214.045 317.439 213.591 317.433 213.144 317.42C199.962 316.979 188.324 309.797 180.366 297.199C161.046 266.609 167.328 211.561 194.37 174.498C209.615 153.607 228.784 141.956 246.856 142.58C260.038 143.021 271.676 150.203 279.634 162.801C298.961 193.397 292.678 248.439 265.63 285.502C250.766 305.874 232.208 317.439 214.498 317.439ZM245.502 145.189C228.646 145.189 210.857 156.367 196.492 176.049C170.029 212.316 163.786 266.038 182.587 295.8C190.171 307.812 200.77 314.377 213.23 314.798C230.486 315.363 248.788 304.132 263.508 283.965C289.971 247.697 296.214 193.975 277.413 164.213C269.829 152.201 259.23 145.636 246.77 145.215C246.35 145.202 245.923 145.196 245.502 145.196V145.189Z" fill="#5B00DB"/>
<path d="M205.469 327.04C202.617 327.04 199.817 326.745 197.09 326.153C183.172 323.117 172.329 312.255 166.566 295.57C153.068 256.476 170.233 195.191 204.825 158.956C223.797 139.091 244.963 129.937 262.903 133.853C276.821 136.889 287.664 147.752 293.427 164.437C306.925 203.53 289.761 264.815 255.169 301.05C239.082 317.899 221.411 327.04 205.475 327.04H205.469ZM254.511 135.588C239.312 135.588 222.318 144.447 206.737 160.77C172.756 196.367 155.848 256.45 169.057 294.709C174.504 310.493 184.664 320.751 197.655 323.584C214.675 327.297 234.948 318.425 253.269 299.23C287.25 263.633 304.159 203.55 290.95 165.291C285.502 149.507 275.343 139.249 262.351 136.416C259.808 135.858 257.186 135.588 254.511 135.588Z" fill="#5B00DB"/>
<path d="M194.909 336.017C189.612 336.017 184.591 335.09 179.959 333.211C165.232 327.231 155.644 312.136 152.957 290.713C147.003 243.202 176.39 177.179 218.474 143.54C240.488 125.941 262.929 119.837 280.048 126.789C294.775 132.769 304.362 147.864 307.05 169.287C313.004 216.798 283.616 282.821 241.533 316.46C225.479 329.294 209.188 336.017 194.909 336.017ZM265.072 126.605C251.41 126.605 235.697 133.137 220.11 145.597C178.664 178.73 149.704 243.688 155.559 290.391C158.122 310.829 167.138 325.174 180.944 330.779C197.156 337.364 218.638 331.397 239.89 314.41C281.336 281.277 310.296 216.318 304.441 169.615C301.878 149.178 292.862 134.833 279.056 129.227C274.732 127.473 270.04 126.605 265.072 126.605Z" fill="#5B00DB"/>
<path d="M183.698 344.139C175.529 344.139 168.097 342.194 161.67 338.264C146.181 328.801 138.532 308.903 140.123 282.23C143.435 226.767 186.136 158.017 235.297 128.977C259.854 114.474 282.236 111.898 298.33 121.729C313.819 131.192 321.468 151.09 319.877 177.764C316.565 233.227 273.871 301.977 224.703 331.016C209.951 339.73 195.986 344.133 183.698 344.133V344.139ZM236.637 131.238C188.133 159.883 146.017 227.687 142.751 282.387C141.22 308.042 148.422 327.093 163.044 336.023C178.27 345.322 199.693 342.746 223.369 328.755C271.873 300.111 313.989 232.307 317.255 177.606C318.787 151.951 311.584 132.901 296.963 123.97C281.743 114.671 260.321 117.254 236.637 131.238Z" fill="#5B00DB"/>
<path d="M172.283 350.947C160.415 350.947 150.19 347.55 142.265 340.781C126.493 327.31 121.585 301.431 128.807 269.77C143.053 207.263 199.758 138.322 255.201 116.091C281.027 105.734 303.239 106.845 317.735 119.225C333.507 132.697 338.415 158.575 331.193 190.236C316.947 252.744 260.242 321.685 204.799 343.916C193.088 348.608 182.121 350.947 172.283 350.947ZM287.704 111.681C278.208 111.681 267.575 113.955 256.181 118.522C201.441 140.471 145.452 208.577 131.369 270.349C124.377 301.024 128.971 325.969 143.973 338.777C157.688 350.487 178.947 351.447 203.826 341.471C258.566 319.523 314.555 251.416 328.637 189.645C335.629 158.969 331.036 134.024 316.033 121.217C308.601 114.869 298.947 111.681 287.71 111.681H287.704Z" fill="#5B00DB"/>
<path d="M162.196 356.48C145.097 356.48 131.146 350.868 121.9 339.999C106.155 321.501 105.386 289.82 119.784 253.072C146.484 184.927 217.409 118.851 277.886 105.78C304.093 100.116 325.476 105.163 338.1 119.994C353.839 138.493 354.614 170.174 340.216 206.921C313.516 275.067 242.591 341.143 182.114 354.213C175.102 355.725 168.439 356.474 162.196 356.474V356.48ZM278.438 108.35C218.723 121.256 148.646 186.609 122.229 254.032C108.199 289.846 108.803 320.561 123.898 338.297C135.864 352.353 156.334 357.098 181.555 351.644C241.277 338.737 311.348 273.385 337.765 205.962C351.795 170.147 351.19 139.433 336.096 121.696C324.129 107.64 303.653 102.895 278.438 108.35Z" fill="#5B00DB"/>
<path d="M154.606 360.975C129.694 360.975 111.162 352.005 100.917 334.952C86.1909 310.434 90.9289 272.931 113.922 232.057C154.337 160.218 239.108 100.549 302.89 99.0512C329.064 98.4335 348.496 107.423 359.083 125.041C373.809 149.559 369.071 187.062 346.078 227.937C305.664 299.775 220.892 359.444 157.11 360.942C156.269 360.962 155.434 360.975 154.606 360.975ZM302.956 101.68C239.995 103.165 156.223 162.229 116.216 233.345C93.6955 273.372 88.9443 309.915 103.171 333.599C113.239 350.362 131.862 358.905 157.051 358.314C220.012 356.829 303.784 297.765 343.791 226.649C366.311 186.622 371.062 150.078 356.835 126.395C346.768 109.631 328.118 101.075 302.956 101.68Z" fill="#5B00DB"/>
<path d="M151.695 364.997C144.315 364.997 137.211 364.373 130.456 363.078C105.294 358.255 87.8205 344.862 79.9151 324.353C67.9682 293.355 80.0071 249.406 112.108 206.803C167.138 133.775 264.684 84.4889 329.544 96.9286C354.706 101.752 372.179 115.145 380.085 135.654C392.032 166.651 379.993 210.601 347.891 253.204C298.593 318.629 215.175 364.997 151.695 364.997ZM308.174 97.6186C245.522 97.6186 163.037 143.573 114.205 208.38C82.6488 250.26 70.7479 293.257 82.3662 323.406C89.9233 343.022 106.726 355.85 130.949 360.496C137.586 361.77 144.571 362.382 151.82 362.382C214.472 362.382 296.956 316.428 345.789 251.62C377.345 209.74 389.245 166.743 377.627 136.594C370.07 116.978 353.267 104.151 329.044 99.5046C322.407 98.2298 315.422 97.6186 308.174 97.6186Z" fill="#5B00DB"/>
<path d="M154.803 369.636C135.733 369.636 118.115 366.41 103.047 359.595C79.3303 348.864 64.4328 330.51 59.9643 306.511C52.8211 268.173 73.4817 219.972 115.23 177.573C185.288 106.418 293.723 71.7994 356.953 100.411C380.67 111.143 395.567 129.497 400.036 153.495C407.179 191.833 386.518 240.035 344.77 282.433C291.403 336.635 215.76 369.636 154.803 369.636ZM305.059 92.9463C244.865 92.9463 169.996 125.685 117.103 179.413C75.9591 221.201 55.568 268.535 62.5468 306.025C66.8511 329.143 81.2294 346.833 104.124 357.197C166.435 385.388 273.542 351.026 342.891 280.587C384.034 238.799 404.425 191.465 397.447 153.975C393.142 130.857 378.764 113.167 355.869 102.803C341.09 96.1137 323.781 92.9463 305.059 92.9463Z" fill="#5B00DB"/>
<path d="M165.607 376.517C130.43 376.517 98.7818 367.757 75.9987 349.528C54.129 332.035 42.6947 307.812 42.9247 279.483C43.2927 234.271 73.6527 183.967 124.134 144.913C209.05 79.2185 325.628 63.7691 384.008 110.472C405.878 127.965 417.312 152.188 417.082 180.517C416.714 225.729 386.354 276.033 335.872 315.087C284.096 355.14 220.55 376.517 165.607 376.517ZM294.374 86.0462C240.041 86.0462 177.087 107.265 125.738 146.99C75.887 185.557 45.9081 235.093 45.5467 279.503C45.3232 306.997 56.4224 330.503 77.635 347.477C99.9844 365.358 131.061 373.947 165.62 373.954C219.952 373.954 282.907 352.735 334.256 313.01C384.107 274.443 414.086 224.907 414.447 180.497C414.67 153.003 403.571 129.497 382.359 112.523C360.009 94.6416 328.933 86.0462 294.374 86.0462Z" fill="#5B00DB"/>
<path d="M183.205 387.675C127.748 387.675 78.2656 368.782 50.6196 332.067C31.2602 306.36 24.7019 275.067 31.6479 241.572C42.0505 191.412 82.3859 142.081 139.557 109.611C238.444 53.4518 359.483 61.6727 409.38 127.932C428.74 153.64 435.298 184.933 428.352 218.428C417.949 268.587 377.614 317.919 320.443 350.388C276.348 375.432 227.838 387.675 183.205 387.675ZM276.874 74.9141C232.681 74.9141 184.598 87.0581 140.858 111.898C84.3376 144 44.4753 192.674 34.2239 242.104C27.4356 274.843 33.8296 305.4 52.7225 330.484C101.85 395.725 221.365 403.63 319.148 348.102C375.669 316 415.531 267.326 425.782 217.895C432.571 185.156 426.177 154.599 407.284 129.516C380.131 93.4587 331.476 74.9141 276.874 74.9141Z" fill="#5B00DB"/>
<path d="M203.182 404.866C124.923 404.866 55.2393 368.677 28.4016 306.557C12.8865 270.651 13.3859 231.117 29.8342 192.221C52.0193 139.768 100.234 96.2188 162.117 72.7391C273.26 30.5703 394.148 66.7723 431.592 153.443C447.107 189.349 446.607 228.883 430.159 267.779C407.974 320.232 359.759 363.781 297.876 387.261C266.392 399.208 234.107 404.866 203.182 404.866ZM256.877 57.7497C226.241 57.7497 194.264 63.3551 163.057 75.1968C101.844 98.4203 54.1682 141.45 32.259 193.246C16.0933 231.459 15.5939 270.283 30.8133 305.512C67.7119 390.915 187.095 426.479 296.943 384.803C358.156 361.58 405.832 318.55 427.741 266.754C443.906 228.541 444.406 189.717 429.186 154.488C402.769 93.3537 334.078 57.7497 256.877 57.7497Z" fill="#5B00DB"/>
<path d="M219.584 429.022C177.632 429.022 137.034 418.317 101.897 397.572C53.3534 368.907 21.0614 324.517 10.9611 272.576C0.860851 220.636 14.1746 167.381 48.4511 122.616C82.6883 77.9044 133.748 47.0186 192.227 35.6501C250.7 24.2815 309.619 33.7904 358.11 62.4221C406.653 91.0866 438.945 135.477 449.045 187.417C459.146 239.358 445.832 292.613 411.555 337.377C377.318 382.089 326.258 412.975 267.779 424.343C251.673 427.471 235.527 429.022 219.584 429.022ZM240.416 33.6064C224.638 33.6064 208.663 35.1375 192.72 38.2326C134.872 49.4764 84.3771 80.0138 50.5343 124.213C16.7309 168.373 3.58799 220.879 13.5437 272.077C23.4929 323.268 55.3446 367.034 103.237 395.311C151.176 423.621 209.431 433.011 267.28 421.767C325.128 410.524 375.623 379.986 409.466 335.787C443.276 291.634 456.412 239.121 446.463 187.93C436.514 136.738 404.662 92.9726 356.769 64.6958C322.039 44.1929 281.895 33.6064 240.416 33.6064Z" fill="#5B00DB"/>
<path d="M230 460C103.178 460 0 356.822 0 230C0 103.178 103.178 0 230 0C356.822 0 460 103.178 460 230C460 356.822 356.822 460 230 460ZM230 2.62857C104.624 2.62857 2.62857 104.624 2.62857 230C2.62857 355.376 104.624 457.371 230 457.371C355.376 457.371 457.371 355.376 457.371 230C457.371 104.624 355.376 2.62857 230 2.62857Z" fill="#5B00DB"/>
</svg>
