<svg width="304" height="304" viewBox="0 0 304 304" fill="none" xmlns="http://www.w3.org/2000/svg">
<path d="M222.648 152.357C245.78 126.629 265.405 101.377 279.614 78.8844C302.321 42.9482 308.329 19.1458 297.471 8.15326C286.613 -2.83926 262.747 2.87511 226.525 25.1374C203.86 39.0684 178.376 58.3805 152.357 81.1941C126.629 58.0618 101.376 38.4372 78.8843 24.2282C42.9481 1.52144 19.1458 -4.48651 8.15323 6.37144C-2.83929 17.2294 2.87502 41.0954 25.1374 77.3171C39.0683 99.9826 58.3804 125.466 81.194 151.486C58.0617 177.213 38.4371 202.466 24.2281 224.958C1.52135 260.894 -4.48654 284.696 6.37141 295.689C9.91409 299.275 14.8302 301.079 21.1112 301.118C34.1015 301.198 52.9054 293.713 77.3171 278.705C99.9826 264.774 125.475 245.462 151.485 222.648C177.213 245.78 202.466 265.405 224.958 279.614C249.183 294.922 267.893 302.638 280.883 302.718C287.164 302.757 292.102 301.013 295.689 297.471C306.681 286.613 300.967 262.747 278.705 226.525C264.774 203.86 245.462 178.376 222.648 152.357ZM231.946 33.9542C249.313 23.2812 270.731 12.9416 282.779 13.0158C285.958 13.0353 288.481 13.7793 290.108 15.426C297.926 23.3406 284.624 51.5797 270.865 73.3548C257.114 95.13 238.129 119.581 215.729 144.568C207.082 134.968 197.99 125.323 188.537 115.753C179.084 106.183 169.552 96.9729 160.06 88.2082C185.321 66.1183 210.003 47.444 231.946 33.9542ZM208.741 152.271C199.872 161.9 190.541 171.577 180.816 181.174C171.099 190.772 161.308 199.992 151.571 208.741C141.943 199.872 132.266 190.541 122.668 180.816C113.07 171.099 103.85 161.308 95.1098 151.571C103.97 141.943 113.31 132.266 123.026 122.668C132.743 113.07 142.534 103.85 152.271 95.1098C161.899 103.97 171.576 113.31 181.174 123.026C190.772 132.743 199.992 142.534 208.741 152.271ZM33.9627 71.8958C20.4729 49.9443 7.52851 21.5436 15.4345 13.7344C17.0812 12.1078 19.6135 11.395 22.7925 11.4146C34.8403 11.4888 56.1293 22.0914 73.3633 32.9775C95.1385 46.728 119.589 65.7135 144.576 88.1129C134.977 96.76 125.332 105.852 115.762 115.305C106.192 124.758 96.9815 134.29 88.2168 143.782C66.1269 118.521 47.4525 93.8387 33.9627 71.8958ZM71.9043 269.888C49.9527 283.378 21.552 296.322 13.7428 288.416C5.92509 280.502 19.2269 252.262 32.986 230.487C46.7364 208.712 65.722 184.261 88.1214 159.275C96.7685 168.874 105.861 178.519 115.314 188.089C124.767 197.659 134.299 206.869 143.791 215.634C118.53 237.724 93.8472 256.398 71.9043 269.888ZM288.416 290.108C286.769 291.734 284.237 292.447 281.058 292.428C269.01 292.353 247.721 281.751 230.487 270.865C208.712 257.106 184.261 238.129 159.275 215.729C168.874 207.082 178.519 197.99 188.089 188.537C197.659 179.084 206.869 169.552 215.634 160.06C237.724 185.321 256.398 210.012 269.888 231.946C283.378 253.898 296.322 282.299 288.416 290.108Z" stroke="url(#paint0_linear_568_96)" stroke-width="2"/>
<defs>
<linearGradient id="paint0_linear_568_96" x1="152.26" y1="96.922" x2="74.9308" y2="312.45" gradientUnits="userSpaceOnUse">
<stop stop-color="#5B00DB"/>
<stop offset="1" stop-color="#5B00DB" stop-opacity="0"/>
</linearGradient>
</defs>
</svg>
