<svg width="100" height="100" viewBox="0 0 100 100" fill="none" xmlns="http://www.w3.org/2000/svg">
<path d="M50.0036 0.0106492C52.2362 1.13585 54.3833 2.48183 56.3916 4.03431C58.3856 5.6046 60.2265 7.39211 61.9107 9.33984C63.5665 11.3125 65.0299 13.4667 66.2584 15.7741C67.4441 18.1028 68.4056 20.5669 69.0572 23.1377C69.6696 25.7157 69.9794 28.3792 69.9794 31.0568C69.9758 31.7298 69.9082 32.417 69.869 33.0971L69.7978 34.1226L69.6019 35.1873C69.3064 36.5689 68.9503 37.897 68.402 39.1896C67.3516 41.7711 65.8204 44.1746 63.9047 46.2149C62.9398 47.2262 61.893 48.1591 60.7784 49.003C59.6532 49.8291 58.4675 50.5662 57.2283 51.2L57.1429 51.2427L57.0254 51.2926C55.3697 51.962 53.6676 52.3252 52.0973 52.5709C50.5235 52.8237 49.0635 52.9625 47.7461 53.2082C46.336 53.4753 44.99 53.7637 43.9183 54.1946C43.377 54.4118 42.8785 54.6574 42.4085 54.9637C42.1735 55.1168 41.9421 55.2842 41.7177 55.4622L41.383 55.7435L41.1053 55.9963C40.265 56.9114 39.3569 58.0508 38.5736 59.1511C37.7795 60.2656 37.0781 61.4371 36.5012 62.6514C35.3298 65.0691 34.5927 67.6613 34.5179 70.3105C34.4716 71.6494 34.5642 72.917 34.8206 74.3591C35.0235 75.7692 35.3333 77.1614 35.6929 78.543C36.4122 81.3062 37.452 83.998 38.7801 86.5617C41.4044 91.7141 45.2821 96.2755 50.0072 100C49.3413 99.6546 48.6683 99.3128 48.006 98.9389C47.3651 98.5401 46.6992 98.1698 46.0725 97.7425C44.8227 96.8808 43.5978 95.9657 42.4441 94.9545C40.151 92.9213 38.0858 90.589 36.3375 88.0146C34.5891 85.4401 33.1613 82.6343 32.093 79.6824C31.5696 78.2047 31.0996 76.702 30.7435 75.1709C30.3625 73.6861 30.0955 71.9663 30.0456 70.3141C29.9174 66.9634 30.683 63.6127 31.9826 60.5932C32.6342 59.0763 33.4247 57.6379 34.3114 56.2776C35.2087 54.8996 36.1487 53.6747 37.2988 52.3573L37.833 51.8374L38.3457 51.3816C38.6982 51.0861 39.0686 50.8047 39.4531 50.5377C40.2258 50.0107 41.059 49.5585 41.9065 49.2167C42.7504 48.8713 43.5943 48.6184 44.399 48.4119C45.2144 48.2054 45.955 48.0487 46.7455 47.8956C48.3692 47.5823 49.8932 47.422 51.2783 47.2191C52.6635 47.0126 53.9098 46.7384 55.035 46.2969L54.832 46.3894C58.7844 44.4666 62.046 41.2334 63.8513 37.2347C64.3142 36.2484 64.6703 35.1837 64.9552 34.1475L65.1474 33.3856L65.2436 32.5523C65.3006 31.9933 65.3896 31.4414 65.4288 30.8717C65.5997 28.5679 65.4537 26.2534 65.1332 23.9425C64.7416 21.6422 64.097 19.374 63.246 17.1592C62.363 14.9551 61.2271 12.8436 59.9559 10.789C58.6491 8.75229 57.1037 6.87225 55.4729 5.0349C53.7922 3.24385 51.9549 1.58453 50.0107 0L50.0036 0.0106492Z" fill="#5B00DB"/>
<path d="M85.547 14.4673C87.395 19.6589 87.8472 25.3845 87.1244 30.9927C86.3624 36.5973 84.2793 42.1592 80.7044 46.8416C79.8213 48.0202 78.8065 49.0991 77.7525 50.1389C76.6771 51.1644 75.5056 52.0901 74.2772 52.9411C73.0274 53.7566 71.7455 54.547 70.3675 55.1452C69.6981 55.4799 68.9752 55.7257 68.2773 56.0141C67.5225 56.242 66.7711 56.509 65.9913 56.6514C65.2222 56.8437 64.4317 56.9292 63.6412 57.0217C62.8472 57.0574 62.0496 57.1037 61.2591 57.0503C59.6781 56.9684 58.1007 56.7156 56.6194 56.2669C53.632 55.3874 50.9685 53.9275 48.5508 52.2825C47.9526 51.8659 47.358 51.435 46.7918 50.997L45.9443 50.3347L45.25 49.8576C45.0185 49.7009 44.7978 49.5299 44.5628 49.3804L43.8221 49.003C43.5693 48.889 43.3414 48.7181 43.0744 48.6398L42.2946 48.3585L41.9065 48.2089C41.7747 48.1662 41.6358 48.1448 41.5005 48.1128L40.6887 47.9241C40.4216 47.8386 40.1368 47.8422 39.859 47.8066L39.0187 47.714C38.4489 47.7211 37.8757 47.7069 37.3024 47.746L36.4335 47.8493C36.1451 47.8778 35.8532 47.9063 35.5647 47.981C30.9215 48.8641 26.3745 51.7448 22.9882 55.3055C22.187 56.2313 21.4571 57.2639 20.72 58.3499C20.0007 59.4324 19.342 60.5576 18.726 61.7042C17.5082 64.008 16.5219 66.4471 15.8204 68.9823C14.3641 74.0528 14.186 79.5186 15.0762 84.9416C13.0181 79.8355 12.3985 74.0671 13.2175 68.4375C13.6341 65.6245 14.4103 62.8508 15.4964 60.2016C16.0376 58.8734 16.6643 57.5808 17.3479 56.3203C18.0423 55.0812 18.7794 53.7993 19.6909 52.5993C20.6701 51.4065 21.6672 50.3347 22.7532 49.3413C23.3051 48.8499 23.8428 48.3478 24.4445 47.9098C25.0285 47.4576 25.6124 46.9983 26.2462 46.5995C28.7138 44.9366 31.4913 43.6476 34.5179 42.9461C34.8882 42.8393 35.2763 42.7788 35.6645 42.7218L36.8288 42.5545C37.6122 42.4797 38.4133 42.4726 39.2038 42.4548L40.4038 42.5473C40.8026 42.5865 41.205 42.5936 41.6002 42.6898L42.7895 42.9355C42.9854 42.9817 43.1883 43.0138 43.3806 43.0708L43.9574 43.2666L45.1076 43.6725C45.4957 43.7971 45.8411 44.0179 46.2078 44.1853L47.2903 44.7407C47.6357 44.9508 47.9633 45.1858 48.298 45.4137L49.2879 46.101L50.0605 46.6956C50.5768 47.0909 51.0932 47.454 51.6166 47.8208C55.7649 50.737 60.4366 52.5068 64.9729 51.6273C65.5462 51.5525 66.0911 51.3673 66.6501 51.2355C67.2198 51.0183 67.8073 50.8545 68.3699 50.5946C69.52 50.1424 70.6096 49.5584 71.6849 48.9389C73.7965 47.6428 75.7407 46.0369 77.4178 44.1425C80.7934 40.3646 83.1648 35.5825 84.5215 30.4835C85.8923 25.3703 86.2164 19.9188 85.5398 14.4708L85.547 14.4673Z" fill="#5B00DB"/>
<path d="M100.004 50.0071C97.6856 55.0278 93.9112 59.4146 89.3819 62.833C87.1066 64.5314 84.6212 65.9842 81.9898 67.1344C80.6759 67.7183 79.3228 68.2204 77.9412 68.637C77.2469 68.84 76.5668 69.0642 75.8368 69.2174C75.1175 69.3811 74.4089 69.5841 73.6469 69.6446C70.6559 70.0327 67.6649 69.9616 64.6881 69.342C61.7291 68.7082 58.8378 67.5011 56.2776 65.6958C53.721 63.887 51.6095 61.3659 50.1959 58.5173C49.9965 58.1683 49.8683 57.8052 49.7187 57.442L49.2915 56.356C49.0529 55.6545 48.8072 54.9708 48.6078 54.2551C48.1912 52.8415 47.8707 51.4457 47.5645 50.1211C47.2618 48.7894 46.977 47.5004 46.6209 46.3004C46.2648 45.104 45.8411 43.9895 45.3177 42.9711C44.812 41.9456 44.1461 41.059 43.3877 40.24L42.7967 39.6418L42.1521 39.1113C42.0418 39.0222 41.9456 38.9297 41.8281 38.8442L41.4471 38.5914L40.6887 38.0751C38.6021 36.7255 36.3054 35.7463 33.9197 35.084C32.7197 34.7814 31.4948 34.5393 30.2521 34.4324C29.0094 34.2864 27.7489 34.2864 26.4884 34.3398C21.4321 34.6105 16.3723 36.3695 11.8537 39.1184C7.29243 41.8388 3.29725 45.5918 0 50C2.2682 44.9616 5.88948 40.475 10.3333 36.9321C11.4407 36.0348 12.6335 35.2478 13.8442 34.4823C15.0762 33.7523 16.3438 33.058 17.6756 32.4847C20.3141 31.2919 23.1591 30.4836 26.0932 30.0955C29.0272 29.7216 32.061 29.8141 35.0057 30.4266C37.9505 31.0426 40.7919 32.1642 43.377 33.6882L44.3456 34.29L44.8263 34.5962C44.9865 34.7066 45.1467 34.8419 45.3105 34.963L46.2719 35.7214L47.1514 36.5617C48.2873 37.719 49.2986 39.0365 50.0463 40.4537C50.7977 41.8673 51.346 43.3272 51.784 44.7515C52.2148 46.1793 52.5317 47.568 52.8451 48.9069C53.1442 50.2528 53.4326 51.5347 53.7816 52.7525C53.9418 53.3613 54.1554 53.9703 54.3548 54.5685C54.5827 55.1097 54.7572 55.6936 55.0136 56.2064C55.9856 58.2894 57.4598 60.1268 59.3256 61.5653C61.1986 62.9967 63.4205 64.0365 65.7848 64.6988C68.1527 65.3219 70.7093 65.5569 73.1698 65.4145C75.6267 65.2187 78.2332 64.6098 80.7079 63.8122C83.1933 62.9968 85.6146 61.925 87.9184 60.6075C92.5474 58.001 96.6565 54.3762 99.9965 49.9929L100.004 50.0071Z" fill="#5B00DB"/>
<path d="M85.547 84.9452C79.9174 87.014 73.6149 87.5623 67.5118 86.4834C64.4638 85.9351 61.43 85.052 58.5886 83.6705C55.7507 82.2925 53.073 80.5014 50.7193 78.3044L49.0137 76.5881L47.4861 74.701L47.1052 74.2274L46.7704 73.7182L46.1046 72.6926L45.4423 71.6636L44.8761 70.5242C44.1106 69.0038 43.612 67.3551 43.2524 65.678C43.142 64.8305 42.9498 63.9831 42.9533 63.1214C42.9391 62.6941 42.9141 62.2632 42.9106 61.8359L42.9818 60.5577C43.1919 57.1358 44.3562 53.9204 45.8767 51.022C47.4292 48.1271 49.4552 45.5704 51.7199 43.2916L51.0504 44.4025C51.6771 42.3124 52.0012 40.1439 51.9193 37.954C51.7982 35.7748 51.4137 33.5707 50.6089 31.4735C50.2279 30.4195 49.7508 29.3904 49.2309 28.3827C48.6932 27.3964 48.0843 26.3816 47.4363 25.495C46.1152 23.7431 44.4737 22.0909 42.6364 20.6915C40.7884 19.3064 38.7552 18.1384 36.5903 17.1984C34.4289 16.2406 32.1144 15.6032 29.7572 15.0975C25.0178 14.1041 20.0506 14.0578 15.0656 14.4709C19.8441 13.0039 24.9466 12.2881 30.0848 12.6584C35.2158 12.9718 40.4109 14.51 44.9366 17.3764L46.5924 18.5123C47.1265 18.9147 47.6321 19.3562 48.152 19.7835C48.6825 20.193 49.1562 20.6951 49.6475 21.1722C50.1389 21.6529 50.6338 22.1265 51.0504 22.6855C52.7632 24.8148 54.1697 27.1151 55.2308 29.6504C55.5121 30.2735 55.715 30.9322 55.9536 31.5767C56.1388 32.239 56.3738 32.8906 56.5126 33.5672C56.8616 34.906 57.0361 36.2947 57.1465 37.6834C57.3102 40.4679 56.9969 43.3058 56.1886 45.9835L56.0035 46.5995L55.5192 47.0945C53.6 49.06 51.9228 51.2499 50.6196 53.5928C50.3276 54.191 49.9822 54.7715 49.7472 55.3875L49.3591 56.299L49.0422 57.2283L48.8784 57.6913L48.7573 58.1612L48.5081 59.1013L48.3443 60.052L48.2588 60.5256C48.241 60.6858 48.2339 60.8425 48.2197 61.0028L48.1413 61.957L48.152 62.9077C48.1271 63.5451 48.2553 64.1647 48.3016 64.7985C48.5259 66.0376 48.8321 67.2875 49.3734 68.4518L49.7579 69.3349L50.2635 70.2108L50.7691 71.0939L51.022 71.5354L51.3211 71.9485L52.5175 73.6114L53.867 75.1603C55.7542 77.1579 57.9405 78.9026 60.3511 80.3518L62.1992 81.3845C62.8365 81.6907 63.4846 81.9756 64.1291 82.2747L64.6133 82.499L65.1154 82.6841L66.116 83.0616L67.1237 83.4355L68.1563 83.7345C69.5272 84.1725 70.9372 84.4717 72.358 84.7672L74.5122 85.0876C75.2351 85.1909 75.9614 85.2016 76.6914 85.2835C77.4214 85.3725 78.1549 85.3654 78.8884 85.3761L79.9958 85.3939C80.3661 85.401 80.7293 85.3582 81.0996 85.344C81.8331 85.2906 82.588 85.312 83.3215 85.2087C84.0586 85.1162 84.7992 85.0307 85.5505 84.9524L85.547 84.9452Z" fill="#5B00DB"/>
</svg>
