<svg width="100" height="100" viewBox="0 0 100 100" fill="none" xmlns="http://www.w3.org/2000/svg">
<path d="M79.532 98.6802C63.677 102.78 46.2882 97.1431 35.0381 84.3278C24.8081 72.5384 25.8318 56.1376 32.4806 42.8111C32.9907 41.7852 32.4806 40.248 32.4806 38.7109C31.9705 37.1738 30.4332 36.659 29.413 36.1478C27.3656 35.6366 24.8117 35.6366 22.7643 36.1478C18.673 37.1738 15.0918 39.7368 12.0243 42.2999C1.79432 52.0374 -0.759631 66.3899 1.28423 79.7164C-4.34082 57.6783 8.95669 31.5364 32.4806 27.4363C41.6868 26.4103 49.8694 28.9734 58.0519 32.5624C60.6094 33.5883 63.1669 31.5364 63.677 28.9734C64.7007 22.3101 61.6296 16.6728 57.5383 12.0614C47.822 2.3239 33.5008 -1.2651 20.2033 0.786774C40.1495 -2.80223 63.6734 5.9129 70.8323 26.4139C73.8998 35.1254 72.8797 45.3777 68.7849 53.5781C67.7612 55.63 66.7374 57.6783 67.2511 60.2414C67.7611 61.7785 68.2748 62.8044 69.8086 63.3156C76.9674 65.8787 84.1298 60.7525 89.2412 55.6264C97.9338 45.8889 101.005 32.5624 98.9575 20.2618C100.491 32.5624 99.4676 44.863 92.3088 55.6264C83.6162 68.9529 67.7612 76.6386 52.9299 71.0013H51.3961C46.7947 69.4641 40.146 64.8492 36.5648 69.9753C34.0073 81.25 43.7236 90.9875 53.4399 95.6024C61.6225 99.1914 70.8287 100.214 79.5213 98.6767L79.532 98.6802Z" fill="#5B00DB"/>
</svg>
