<svg width="100" height="100" viewBox="0 0 100 100" fill="none" xmlns="http://www.w3.org/2000/svg">
<path d="M67.1696 45.5441C71.8583 46.2618 76.9711 47.4994 82.218 49.2696C89.031 51.5661 95.1199 54.4367 99.9968 57.4828C95.7611 54.0125 90.8108 50.5805 85.3406 47.4228C77.4209 42.8489 69.5617 39.5126 62.6403 37.5574C67.0611 35.8318 72.1102 34.3487 77.5389 33.2578C84.5879 31.8417 91.2956 31.2803 97.0401 31.4812C91.6369 30.5945 85.6341 30.097 79.3155 30.097C70.1709 30.097 61.6962 31.1336 54.727 32.8974C57.6901 29.1943 61.3198 25.3859 65.4759 21.7275C70.8727 16.975 76.4034 13.1379 81.4781 10.4395C76.3556 12.3724 70.9077 14.9432 65.4376 18.1041C57.5178 22.6748 50.6985 27.81 45.5441 32.8241C46.2618 28.1354 47.4994 23.0225 49.2696 17.7788C51.5661 10.9658 54.4367 4.87688 57.4828 0C54.0125 4.23577 50.5805 9.18602 47.4228 14.6562C42.8489 22.5791 39.5126 30.4351 37.5574 37.3565C35.8319 32.9357 34.3487 27.8866 33.2578 22.4579C31.8416 15.4089 31.2803 8.7012 31.4812 2.95675C30.5945 8.35991 30.097 14.3627 30.097 20.6813C30.097 29.8258 31.1336 38.3006 32.8974 45.2698C29.1943 42.3067 25.3859 38.677 21.7275 34.5209C16.975 29.1241 13.1379 23.5934 10.4395 18.5188C12.3724 23.6412 14.9432 29.0891 18.1041 34.5592C22.6748 42.479 27.81 49.2983 32.824 54.4527C28.1353 53.735 23.0225 52.4974 17.7788 50.7272C10.9658 48.4307 4.87688 45.5601 0 42.514C4.23577 45.9843 9.186 49.4163 14.6561 52.574C22.5759 57.1479 30.4351 60.4842 37.3565 62.4394C32.9357 64.165 27.8866 65.6481 22.4579 66.739C15.4089 68.1552 8.70117 68.7165 2.95672 68.5156C8.35988 69.4023 14.3627 69.8998 20.6813 69.8998C29.8258 69.8998 38.3006 68.8632 45.2698 67.0994C42.3067 70.8025 38.677 74.6109 34.5209 78.2693C29.1241 83.0218 23.5934 86.8589 18.5187 89.5573C23.6412 87.6244 29.0891 85.0536 34.5592 81.8927C42.4789 77.322 49.2983 72.1868 54.4527 67.1728C53.735 71.8615 52.4974 76.9744 50.7272 82.2212C48.4307 89.0342 45.5601 95.1231 42.514 100C45.9843 95.7642 49.4163 90.814 52.574 85.3438C57.1479 77.4209 60.4842 69.5649 62.4394 62.6467C64.165 67.0675 65.6481 72.1166 66.739 77.5453C68.1552 84.5943 68.7165 91.302 68.5156 97.0464C69.4023 91.6433 69.8998 85.6405 69.8998 79.3219C69.8998 70.1773 68.8632 61.7026 67.0994 54.7334C70.8025 57.6965 74.6108 61.3262 78.2693 65.4823C83.0218 70.8791 86.8589 76.4098 89.5573 81.4844C87.6244 76.362 85.0536 70.9141 81.8927 65.444C77.322 57.5242 72.1868 50.7049 67.1728 45.5505L67.1696 45.5441Z" fill="#5B00DB"/>
<path d="M49.9968 57.4668C54.1224 57.4668 57.4668 54.1223 57.4668 49.9968C57.4668 45.8712 54.1224 42.5267 49.9968 42.5267C45.8712 42.5267 42.5268 45.8712 42.5268 49.9968C42.5268 54.1223 45.8712 57.4668 49.9968 57.4668Z" fill="#5B00DB"/>
</svg>
